<?xml version="1.0" encoding="utf-8"?>
<!-- Generator: Adobe Illustrator 18.0.0, SVG Export Plug-In . SVG Version: 6.00 Build 0)  -->
<!DOCTYPE svg PUBLIC "-//W3C//DTD SVG 1.1//EN" "http://www.w3.org/Graphics/SVG/1.1/DTD/svg11.dtd">
<svg version="1.1" id="Capa_1" xmlns="http://www.w3.org/2000/svg" xmlns:xlink="http://www.w3.org/1999/xlink" x="0px" y="0px"
	 viewBox="0 0 514.3 144.3" enable-background="new 0 0 514.3 144.3" xml:space="preserve">
<g>
	<g opacity="0.7">
		<g>
			<defs>
				<polygon id="SVGID_13_" points="108.5,144.3 514.3,142.7 514.1,101.8 108.3,103.5 				"/>
			</defs>
			<clipPath id="SVGID_1_">
				<use xlink:href="#SVGID_13_"  overflow="visible"/>
			</clipPath>
			<g opacity="0.9" clip-path="url(#SVGID_1_)">
				<g>
					<defs>
						<polygon id="SVGID_15_" points="108.5,144.3 514.3,142.7 514.1,101.8 108.3,103.5 						"/>
					</defs>
					<clipPath id="SVGID_2_">
						<use xlink:href="#SVGID_15_"  overflow="visible"/>
					</clipPath>
					<g opacity="0.9" clip-path="url(#SVGID_2_)">
						<g>
							<defs>
								<polygon id="SVGID_17_" points="108.5,144.3 514.3,142.7 514.1,101.8 108.3,103.5 								"/>
							</defs>
							<clipPath id="SVGID_3_">
								<use xlink:href="#SVGID_17_"  overflow="visible"/>
							</clipPath>
							<path clip-path="url(#SVGID_3_)" fill="#B7BAD4" d="M266.9,117.2c-4.9,0.3-9.9,0.6-14.8,1.1c-4.8,0.4-9.8,1-14.7,1.6l6.4-1.8
								c1.8-0.4,3.7-0.7,5.5-0.9c1.9-0.1,3.8-0.2,5.8-0.2C258.9,117.1,262.9,117.3,266.9,117.2"/>
							<path clip-path="url(#SVGID_3_)" fill="#B7BAD4" d="M294,116.4C294,116.4,293.9,116.4,294,116.4c-7.7,0-15.3,0.2-22.9,0.6
								l1.5-0.2C279.7,115.8,286.9,115.3,294,116.4"/>
							<path clip-path="url(#SVGID_3_)" fill="#D0D2E3" d="M418.4,113.7c-8.3,3.3-18.1,5.8-27.2,8.5c-2.2,0-4.7,0.3-6.6,0
								c0.1,0.1-13.3-1.1-20.1-1.8c4.1-1.5,7.7-3.4,10.7-5.6c-2.7-0.8-8.1-1.8-8-2.7c1.6-3.2,7.4-4.7,13.4-5.9l14.8,3.2
								C403,111.1,412,112.9,418.4,113.7"/>
							<path clip-path="url(#SVGID_3_)" fill="#DBDBE8" d="M448.1,119.4c8.1,1.8,18.6,5.4,23,6.8c-2.9,1.4-5.9,2.8-9.4,3.7
								c2.6,1.4,4.3,2.6,6.9,3.6l-2.2,0.5c-13.5-2.4-27-4.4-40.5-6.3C426.7,126.7,443.8,122.2,448.1,119.4"/>
							<path clip-path="url(#SVGID_3_)" fill="#D5D7E6" d="M423.8,115.4l8.6,0.7c5.2,1,10.4,2,15.6,3.3c-4.2,2.8-9.8,5-16.3,6.3
								c0.9,0.1,1.5,1.5,2.4,1.7c-4.4,0-7.4-0.7-8.5,0.3c-12.5-1.7-25-3.2-37.5-4.7c2.8-0.5,5.4,0.3,8.1,0.6
								c-1.2-1.2-3.1-1.5-5.1-1.6c9.1-2.7,19-5.2,27.2-8.5l2.6,0.4C421.7,114.8,422.3,115.4,423.8,115.4"/>
							<path clip-path="url(#SVGID_3_)" fill="#C0C2D8" d="M285.2,111.7c7.9-2.2,13.2-5.1,17.5-8.3c2.3,0.4,6.8,1.1,10.1,0.5
								c6,0.2,18.4,1.6,20.5,0.6c2.1-1.1-13.2,4-19,6.6c-0.7,1.7-3.8,3-7.5,4.2c-1.1-0.2-0.2-1.2-1.3-1.4c0,0.2-2.1,1.3-2.1,1.3
								s-8.5-0.2-12.8-0.2c-2.1-1.7-7.2-0.3-7.4,0.1l-3.7,0.1l-0.1,0c1.6-0.6,3.2-1.2,4.8-1.7C285.2,113,285.2,111.7,285.2,111.7"/>
							<path clip-path="url(#SVGID_3_)" fill="#C4C5DB" d="M367.1,112.2c1.6-3.2,7.4-4.7,13.4-5.9l-8.7-1.7c0.6,0.8,1.7,1.8,0.3,1.9
								c-3.7,0-8.3,0-11-0.2c-3.5-0.6-7.2-2-10.9-2.8c-3.1,0-6.2,0.1-9.2,0.2c-0.2,0-1.9,1.1-1.9,1.6c-2.1-0.1-4-0.5-5.9-0.8
								c-0.1,0.1-4.4,1-8.9,2.2c-4.5,1.2-9.2,2.9-10.1,4.4c-0.7,1.7-3.8,3-7.5,4.2c0.2,0,10.4,0.5,15.3,0.8c-0.1-0.3-2-1.1-2.5-1.3
								c0.7,0,5.5,1.3,7.4,1.6c3.1,0.2,10.8,0.8,11.5,0.7c0.9,0.1-0.9-0.9-0.8-1.8c3.8,1.4,7.7,2.5,11.8,3.3l3.3,0.3
								c0.3,0.4,0.6,0.6,0.1,0.6c-0.7,0-1.4,0-2.1,0l13,1.7c-2.3-0.5-4.6-1.1-6.8-1.8l7.1,0.8l0.3,0c4.1-1.5,7.7-3.3,10.7-5.6
								C372.5,114,367.1,113,367.1,112.2"/>
							<path clip-path="url(#SVGID_3_)" fill="#A1A3C6" d="M136.5,140.6c-5.2,0.3-12.5,3.6-17.2,3.7c-7.5-0.5-6.8-5.9-10.9-8.8
								c20.5-9.3,41.8-15.5,63.1-20.1c-4.9,3.1-14.1,4.5-17.7,9c0.1,0.4,2,0.3,2.9,0.5c-5.1,2.8-13.7,6.2-13.1,8.4
								c0.4,1.3,2.3,2.1,3.4,3.6l-1.9,0.7C143,137.6,140,139.2,136.5,140.6"/>
							<path clip-path="url(#SVGID_3_)" fill="#AAACCE" d="M174.5,130.5c-4.8,1.2-9.5,2.6-14.2,4.1c-0.1-0.4-0.4-0.7-0.6-1.1
								c5.5-1.6,11.1-3.2,16.7-4.8C175.7,129.3,175,129.9,174.5,130.5"/>
							<path clip-path="url(#SVGID_3_)" fill="#AAACCE" d="M156.7,124.9c-1-0.2-2.9-0.1-2.9-0.5c3.6-4.4,12.8-5.8,17.7-9
								c8.2-1.8,16.4-3.2,24.6-4.6l-4.1,1.8c4.6-0.8,5.8,2.1,10.3,1.4c-6.4,2.6-14,4.9-21,7.6c-7.1,2.7-13.5,5.8-17.8,9.6
								c-5.5,1.8-11,3.6-16.5,5.5c-1.2-1.4-3.1-2.3-3.4-3.6C143.1,131.1,151.7,127.7,156.7,124.9"/>
							<path clip-path="url(#SVGID_3_)" fill="#B1B3D1" d="M202.4,114.1c-4.5,0.7-5.8-2.2-10.3-1.4l4.1-1.8c9.5-1.5,19-2.8,28.5-3.8
								l1.9-0.1c7.3-0.4,13.4-1.2,20.2-1.5c-4.4,2.1-8.8,4.3-13.3,6.5c-8.8-1.5-18.4-2.5-28.8-2.2c3.7-0.1,3,2.3,4.9,2.4
								c6.9,1.5,13.2,5.9,10.1,8.4c-14,2-27.8,4.6-41.5,8c-1-0.3-2.5-0.9-3.2-0.8c-3.8,1.1-7.6,2.3-11.4,3.5
								c4.2-3.8,10.7-6.9,17.8-9.6C188.4,119,195.9,116.7,202.4,114.1"/>
							<path clip-path="url(#SVGID_3_)" fill="#B7BAD4" d="M233.5,111.9c4.5-2.1,8.9-4.3,13.3-6.5c1.8-0.1,3.5,0,5.4,0
								c0-0.4-0.1-0.8-0.7-1.1l3.8-0.3c1.6,0.1,3.1,1.4,5.2-0.4l5.4-0.3c1.9,0.4,3.5,1.1,4.5,2l0-1.4c1.8-1,3.7-0.1,5.5-0.2
								c0-0.2,0-0.6,0.1-0.9c8.6,0.8,20.7-0.3,22.9-0.3c1.2,0.2,2.5,0.5,3.7,0.6c-4.3,3.2-9.6,6.1-17.5,8.3c0,0,0,1.3-0.9,1.8
								c-1.6,0.5-3.2,1.1-4.8,1.7c-9.9-2-22.4,1.1-22.9,1.2l-4.2,0.3c-7.9,0.4-20.5-0.7-29.5,3.4l-3.3,0.5c3.1-2.5-3.2-6.9-10.1-8.4
								c-1.8-0.2-8-1.8-4.9-2.4C216.1,108.4,234.1,112,233.5,111.9"/>
							<path clip-path="url(#SVGID_3_)" fill="#E9E9F1" d="M505.1,136.4l9.2,2.8c-3.4-0.7-6.7-2-8.6-1.3c-1.4-0.7-3.1-1-4.8-1.4
								C502.2,136.3,503.6,136.3,505.1,136.4"/>
							<path clip-path="url(#SVGID_3_)" fill="#E9E9F1" d="M498.2,141.3l-2.7-0.6c0.1-0.9,2-1.3,3.8-0.5c0.2-0.9-1.8-0.4-1.7-0.8
								c0.2-1.2,1.2-1,2.4-0.6c-0.3,2-2,3.6-3.3,3.3l-1.8-0.4C496,141.6,497.6,141.7,498.2,141.3"/>
							<path clip-path="url(#SVGID_3_)" fill="#E4E4ED" d="M468.5,133.5c-2.6-1-4.3-2.2-6.9-3.6c3.5-0.9,6.5-2.3,9.4-3.7l23.9,7.3
								c-1.5-0.1-3,0-4.3,0.1c1.7,0.4,3.4,0.7,4.8,1.4c-0.4,0.1-0.7,0.3-1,0.6l0,0c-1.2-0.4-2.2-0.6-2.4,0.6
								c-0.1,0.4,1.8-0.1,1.7,0.8c-1.7-0.8-3.6-0.3-3.8,0.5l2.7,0.6c-0.6,0.4-2.2,0.3-3.3,0.4c-7.7-1.6-15.5-3.1-23.2-4.5
								L468.5,133.5z"/>
						</g>
					</g>
				</g>
			</g>
		</g>
	</g>
	<path fill="#32347B" d="M183.6,72.8L144.4,73l-11.1,25.6c-0.5,1-1.2,1.8-2.3,2.3c-1.1,0.5-2.2,0.5-3.3,0.1
		c-1.1-0.5-1.9-1.3-2.4-2.3c-0.5-1.1-0.5-2.2,0-3.3l34.4-80.1c0.3-0.8,0.8-1.5,1.5-2.2c0.7-0.7,1.6-1,2.5-1.1c0.9,0,1.8,0.3,2.5,1
		c0.7,0.6,1.3,1.4,1.7,2.2l34.8,79.8c0.5,1.1,0.5,2.2,0,3.3c-0.5,1-1.2,1.8-2.4,2.3c-1.1,0.4-2.2,0.4-3.3-0.1
		c-1.1-0.5-1.8-1.3-2.3-2.3L183.6,72.8z M148.1,64.3l31.7-0.1l-15.9-35.9L148.1,64.3z"/>
	<path fill="#32347B" d="M198.9,102.5c-0.8,0-1.6-0.2-2.4-0.5c-1.4-0.7-2.4-1.7-3.1-3l-10.8-24.6l-37.2,0.2l-10.7,24.6
		c-0.6,1.4-1.6,2.4-3,3.1c-1.4,0.7-3,0.8-4.5,0.1c-1.5-0.6-2.6-1.6-3.2-3.1c-0.6-1.5-0.7-3,0-4.5l34.4-80.1c0.4-0.9,1-1.8,1.9-2.7
		c2-1.9,5-1.9,7.1-0.1c0.9,0.8,1.6,1.8,2.1,2.8l34.8,79.8c0.7,1.5,0.7,3.1,0,4.5c-0.6,1.4-1.7,2.5-3.2,3.1
		C200.3,102.4,199.6,102.5,198.9,102.5 M143.4,71.4l41.2-0.2l11.7,26.4c0.3,0.7,0.8,1.2,1.6,1.5c0.7,0.3,1.3,0.3,2.1,0
		c0.7-0.3,1.2-0.8,1.5-1.5c0.3-0.7,0.3-1.4,0-2.1l-34.8-79.8c-0.3-0.6-0.7-1.2-1.3-1.7c-0.9-0.8-2-0.8-2.9,0.1
		c-0.6,0.5-1,1.1-1.1,1.6L126.8,96c-0.3,0.7-0.3,1.4,0,2.1c0.3,0.7,0.8,1.2,1.5,1.5c0.7,0.2,1.4,0.2,2-0.1c0.8-0.4,1.3-0.9,1.6-1.6
		L143.4,71.4z M182.2,65.7l-36.4,0.1l18.1-41.4L182.2,65.7z M150.5,62.7l27-0.1l-13.5-30.6L150.5,62.7z"/>
	<path fill="#32347B" d="M212.6,101c-1.2,0-2.3-0.4-3.1-1.3c-0.8-0.8-1.2-1.8-1.3-3.1l-0.3-80.5c0-1.2,0.4-2.2,1.2-3.1
		c0.8-0.8,1.8-1.3,3.1-1.3l24-0.1c6.1,0,11.9,1.1,17.3,3.4c5.4,2.3,10.1,5.5,14.2,9.5c4.1,4,7.3,8.7,9.6,14.1
		c2.4,5.4,3.5,11.1,3.5,17.3c0,6.2-1.1,11.9-3.4,17.4c-2.3,5.4-5.5,10.2-9.5,14.3c-4,4.1-8.7,7.3-14.1,9.6
		c-5.4,2.3-11.1,3.5-17.3,3.5L212.6,101z M272.3,56.1c0-4.9-1-9.6-2.8-13.9c-1.9-4.4-4.4-8.2-7.7-11.4c-3.3-3.2-7.1-5.8-11.5-7.6
		c-4.4-1.8-9-2.7-14-2.7l-19.7,0.1l0.3,71.9l19.7-0.1c4.9,0,9.6-1,13.9-2.9c4.4-1.9,8.2-4.5,11.4-7.8c3.2-3.3,5.8-7.1,7.6-11.5
		C271.4,65.7,272.3,61.1,272.3,56.1"/>
	<path fill="#32347B" d="M236.6,102.5l-24,0.1c-1.7,0-3.1-0.6-4.2-1.7c-1.1-1.1-1.7-2.5-1.7-4.2l-0.3-80.5c0-1.7,0.6-3.1,1.7-4.2
		c1.1-1.1,2.5-1.7,4.1-1.7l24-0.1c6.3,0,12.4,1.2,17.9,3.5c5.5,2.4,10.5,5.7,14.7,9.8c4.2,4.2,7.5,9.1,9.9,14.6
		c2.4,5.5,3.6,11.5,3.7,17.9c0,6.3-1.2,12.4-3.5,18c-2.4,5.6-5.7,10.6-9.8,14.8c-4.1,4.2-9,7.5-14.6,10
		C248.9,101.2,242.9,102.4,236.6,102.5 M212.3,13.4c-0.8,0-1.4,0.3-2,0.8c-0.6,0.5-0.8,1.2-0.8,2l0.3,80.5c0,0.8,0.3,1.4,0.8,2
		c0.5,0.6,1.2,0.8,2,0.8l24-0.1c5.9,0,11.5-1.2,16.7-3.4c5.2-2.3,9.8-5.4,13.7-9.3c3.9-3.9,6.9-8.5,9.2-13.8
		c2.2-5.2,3.3-10.9,3.3-16.8c0-5.9-1.2-11.5-3.4-16.7c-2.2-5.1-5.4-9.8-9.3-13.6c-3.9-3.9-8.5-7-13.7-9.2
		c-5.2-2.2-10.8-3.3-16.7-3.3L212.3,13.4z M236.6,93.8l-21.2,0.1L215.1,19l21.2-0.1c5.1,0,10,0.9,14.6,2.9c4.6,1.9,8.6,4.6,12,7.9
		c3.4,3.4,6.1,7.4,8.1,11.9c1.9,4.5,2.9,9.4,3,14.5c0,5.1-0.9,10-2.8,14.6c-1.9,4.6-4.6,8.6-7.9,12c-3.4,3.4-7.4,6.1-11.9,8.1
		C246.6,92.8,241.7,93.8,236.6,93.8 M218.4,90.8l18.2-0.1c4.7,0,9.2-0.9,13.3-2.8c4.2-1.8,7.8-4.3,10.9-7.4c3.1-3.1,5.5-6.8,7.3-11
		c1.7-4.2,2.6-8.7,2.6-13.4c0-4.7-0.9-9.2-2.7-13.3c-1.8-4.1-4.3-7.8-7.4-10.9c-3.1-3.1-6.8-5.5-11-7.3c-4.2-1.8-8.7-2.6-13.4-2.6
		L218.2,22L218.4,90.8z"/>
	<path fill="#32347B" d="M286.8,56.3c0-6.1,1.1-11.9,3.4-17.3c2.3-5.4,5.4-10.2,9.4-14.2c4-4.1,8.7-7.3,14.1-9.6
		c5.4-2.4,11.2-3.6,17.3-3.6c6.1,0,11.9,1.1,17.3,3.4c5.4,2.3,10.2,5.5,14.2,9.5c4.1,4,7.3,8.8,9.6,14.1c2.4,5.4,3.5,11.2,3.5,17.3
		c0,6.2-1.1,11.9-3.4,17.3c-2.3,5.4-5.5,10.1-9.5,14.2c-4,4-8.7,7.2-14.2,9.5c-5.4,2.3-11.1,3.5-17.3,3.5c-6.1,0-11.9-1.1-17.3-3.4
		c-5.4-2.3-10.1-5.5-14.1-9.4c-4-4-7.2-8.7-9.5-14.1C288,68.2,286.8,62.5,286.8,56.3 M295.4,56.3c0,4.9,1,9.6,2.8,13.9
		c1.9,4.4,4.5,8.1,7.7,11.4c3.2,3.2,7,5.7,11.4,7.5c4.4,1.8,9,2.8,14,2.7c4.9,0,9.6-1,13.9-2.9c4.4-1.9,8.2-4.4,11.4-7.6
		c3.2-3.2,5.8-7,7.6-11.4c1.9-4.4,2.8-9,2.7-14c0-4.9-1-9.6-2.8-13.9c-1.9-4.4-4.5-8.2-7.7-11.4c-3.3-3.3-7.1-5.8-11.5-7.6
		c-4.4-1.8-9-2.7-14-2.7c-4.9,0-9.6,1-13.9,2.9c-4.4,1.9-8.2,4.4-11.3,7.7c-3.2,3.3-5.7,7.1-7.6,11.5
		C296.3,46.7,295.4,51.4,295.4,56.3"/>
	<path fill="#32347B" d="M331.4,102.1c-6.3,0-12.3-1.2-17.9-3.5c-5.6-2.4-10.5-5.7-14.6-9.8c-4.1-4.1-7.4-9-9.9-14.5
		c-2.4-5.6-3.6-11.6-3.7-17.9c0-6.3,1.2-12.3,3.5-17.9c2.4-5.6,5.7-10.5,9.7-14.7c4.1-4.2,9-7.6,14.6-10c5.5-2.4,11.6-3.7,17.9-3.7
		c6.3,0,12.4,1.2,17.9,3.5c5.6,2.4,10.5,5.7,14.7,9.8c4.2,4.1,7.5,9.1,9.9,14.6c2.4,5.6,3.6,11.6,3.7,17.9c0,6.3-1.2,12.4-3.5,17.9
		c-2.4,5.5-5.7,10.5-9.8,14.6c-4.1,4.1-9,7.4-14.6,9.9C343.7,100.8,337.7,102,331.4,102.1 M331,13.2c-5.9,0-11.5,1.2-16.7,3.4
		c-5.2,2.2-9.7,5.4-13.6,9.3c-3.8,3.9-6.9,8.5-9.1,13.7c-2.2,5.2-3.3,10.8-3.3,16.7c0,5.9,1.2,11.5,3.4,16.7
		c2.3,5.2,5.4,9.7,9.2,13.6c3.8,3.8,8.4,6.9,13.6,9.1c10.4,4.4,23,4.4,33.4-0.1c5.2-2.3,9.8-5.4,13.7-9.2c3.9-3.8,7-8.5,9.1-13.6
		c2.2-5.2,3.3-10.8,3.3-16.7c0-5.9-1.2-11.5-3.4-16.7c-2.3-5.2-5.4-9.8-9.3-13.7c-3.9-3.9-8.6-7-13.7-9.2
		C342.5,14.3,336.9,13.2,331,13.2 M331.3,93.4c-5.1,0-10-1-14.6-2.9c-4.5-1.9-8.5-4.6-11.9-7.9c-3.4-3.3-6.1-7.3-8-11.8
		c-2-4.5-3-9.4-3-14.5c0-5.1,0.9-10,2.9-14.6c1.9-4.5,4.5-8.5,7.9-12c3.3-3.4,7.3-6.1,11.8-8.1c9.1-3.9,20-3.9,29.1-0.1
		c4.6,1.9,8.6,4.6,12,8c3.4,3.3,6.1,7.3,8.1,11.9c2,4.5,2.9,9.4,3,14.5c0,5.1-0.9,10-2.8,14.6c-1.9,4.5-4.6,8.5-8,11.9
		c-3.4,3.3-7.4,6-11.9,8C341.3,92.4,336.4,93.4,331.3,93.4 M331,21.8c-4.7,0-9.2,0.9-13.3,2.7c-4.2,1.8-7.8,4.3-10.8,7.4
		c-3.1,3.1-5.5,6.8-7.2,11c-1.8,4.2-2.6,8.7-2.6,13.4c0,4.7,0.9,9.2,2.7,13.3c1.8,4.1,4.2,7.8,7.3,10.9c3,3,6.8,5.5,10.9,7.2
		c8.4,3.5,18.4,3.5,26.7-0.1c4.1-1.8,7.8-4.3,10.9-7.3c3.1-3.1,5.5-6.7,7.3-10.9c1.8-4.2,2.6-8.7,2.6-13.4c0-4.7-0.9-9.2-2.7-13.3
		c-1.8-4.2-4.3-7.8-7.4-10.9c-3.1-3.1-6.8-5.5-11-7.3C340.2,22.7,335.7,21.8,331,21.8"/>
	<path fill="#32347B" d="M456.4,32.2l-25.5,65c-0.4,0.8-0.9,1.6-1.7,2.2c-0.7,0.7-1.6,1-2.5,1c-0.9,0-1.8-0.4-2.5-1
		c-0.8-0.7-1.3-1.4-1.5-2.2l-26.7-65.5L387,96.5c-0.2,1.1-0.7,2-1.5,2.7c-0.8,0.7-1.7,1.1-2.8,1.1c-1.4-0.2-2.5-0.7-3.3-1.6
		c-0.8-0.9-1.1-2-0.9-3.3l11.1-80.7c0.2-1,0.7-1.9,1.4-2.6c0.8-0.7,1.7-1.1,2.8-1.1c1.9,0,3.3,0.9,4.1,2.6l28.6,70.5l27.9-70.7
		c0.7-1.8,2.1-2.7,4-2.7c1.1,0,2.1,0.4,2.9,1.1c0.8,0.7,1.3,1.7,1.5,2.8L473,95.2c0.2,1.4-0.1,2.5-0.9,3.3c-0.8,0.8-1.7,1.3-2.8,1.5
		c-1.3,0-2.4-0.3-3.2-1c-0.8-0.7-1.4-1.6-1.5-2.6L456.4,32.2z"/>
	<path fill="#32347B" d="M426.7,102c-1.3,0-2.6-0.5-3.6-1.5c-0.9-0.9-1.6-1.7-1.9-2.7l-24.5-60.1l-8.2,59.1c-0.3,1.5-1,2.7-2.1,3.7
		c-1.1,1-2.4,1.4-3.8,1.4c-2-0.3-3.4-1-4.5-2.1c-1.1-1.2-1.5-2.7-1.3-4.5l11.1-80.7c0.2-1.4,0.9-2.6,2-3.5c1.1-0.9,2.4-1.4,3.9-1.4
		c2.6,0,4.5,1.3,5.5,3.6l27.2,66.9l26.5-67.1c1-2.4,2.9-3.6,5.4-3.6c1.5,0,2.8,0.5,3.9,1.5c1,1,1.7,2.2,2,3.7L474.5,95
		c0.3,2.4-0.5,3.8-1.3,4.6c-1,1-2.2,1.7-3.6,1.9c-1.9,0-3.4-0.4-4.5-1.4c-1.1-0.9-1.8-2.1-2.1-3.5l-7.3-58.3l-23.3,59.4
		c-0.5,1.1-1.2,2.1-2.1,2.8C429.1,101.5,428,102,426.7,102 M395.2,25.9L424,96.7c0.2,0.5,0.6,1,1.2,1.6c0.9,0.9,2,0.9,3,0
		c0.5-0.5,1-1.1,1.2-1.7L455,31.6l3,0.4l8.1,64.1c0.1,0.6,0.4,1.1,1,1.6c0.6,0.5,1.3,0.7,2.2,0.7c0.5-0.1,1.2-0.5,1.8-1
		c0.1-0.1,0.6-0.6,0.4-2l-10.1-80.5c-0.1-0.7-0.4-1.3-1-1.9c-0.5-0.5-1.1-0.7-1.8-0.7c-1.3,0-2.1,0.5-2.6,1.7l-29.3,74.3l-30-74
		c-0.5-1.2-1.3-1.7-2.7-1.7c-0.7,0-1.3,0.2-1.8,0.7c-0.6,0.5-0.9,1-1,1.7L380,95.7c-0.2,1.1,0.2,1.7,0.6,2c0.5,0.6,1.3,1,2.3,1.1
		c0.4,0,1-0.3,1.6-0.7c0.6-0.5,0.9-1,1-1.8L395.2,25.9z"/>
	<polygon fill="#32347B" points="2.5,65.9 0,65.9 0,59.9 7.3,55.9 7.1,26.4 39.4,26.3 39.5,36.5 58.1,26 107.5,59 107.5,64.5 
		105.1,64.5 105.1,60.3 57.9,28.9 37.1,40.7 37,28.7 9.6,28.8 9.7,57.4 2.5,61.3 	"/>
	<path fill="#32347B" d="M105.1,58.3l-1.6,0l-0.1-31.1c-2.1-21.7-20-25.5-20.7-25.7L33.8,1.8C12.2,3.9,9.3,26.8,9.2,27.7l-1.6-0.2
		c0.1-0.3,3.2-25.1,26.1-27.3L82.8,0c0.4,0.1,20,4.1,22.2,27.2L105.1,58.3z"/>
	<path fill="#32347B" d="M85.4,125.6L27,125.8l-0.2-0.1c-16.5-6.4-19.2-22.5-19.3-23.2l0-0.2L7.3,67.1l2.5,0l0.1,35.1
		c0.2,1.2,3.1,15.4,17.5,21.2l57.6-0.2c1.8-0.5,17-5.6,18.2-22.5l-0.1-33.9l2.5,0l0.1,34c-1.3,19.4-20,24.8-20.2,24.8L85.4,125.6z"
		/>
	<g opacity="0.97">
		<g>
			<defs>
				<polygon id="SVGID_19_" points="57.5,108.6 97.2,108.4 97.1,82.9 57.4,83.1 				"/>
			</defs>
			<clipPath id="SVGID_4_">
				<use xlink:href="#SVGID_19_"  overflow="visible"/>
			</clipPath>
			<path clip-path="url(#SVGID_4_)" fill="#32347B" d="M58.5,108.2l31.7-0.1c0,0,18.6-16.6-7.1-24.6L73,91.8L58.5,108.2z"/>
			<path clip-path="url(#SVGID_4_)" fill="#FFFFFF" d="M90.4,108.4l-32.8,0.1l15.1-17L83,83l0.2,0.1c8.1,2.5,12.7,6.1,13.7,10.8
				c1.6,7.3-6.1,14.2-6.4,14.5L90.4,108.4z M59.4,107.7l30.7-0.1c1-0.9,7.4-7.3,6-13.6c-0.9-4.3-5.3-7.7-12.9-10.1l-10,8.3
				L59.4,107.7z"/>
		</g>
	</g>
	<path fill="#32347B" d="M79.7,81.7c-3,1.1-5.8,0-5.8,0s-3.1-0.1-2.4,2c0.7,2,5.1,4.8,5.1,4.8s4.9-3,5.3-4.8
		C82.2,81.8,79.7,81.7,79.7,81.7"/>
	<path fill="#FFFFFF" d="M76.5,88.9l-0.2-0.1c-0.2-0.1-4.5-2.8-5.3-5c-0.3-0.8-0.1-1.3,0.1-1.5c0.6-0.8,2-0.9,2.6-0.9l0.2,0
		c0,0,1.2,0.4,2.8,0.4c1,0,1.9-0.2,2.7-0.5l0.1,0l0.1,0c0.1,0,1.5,0.1,2.2,1c0.3,0.4,0.4,0.9,0.3,1.5c-0.4,1.9-4.9,4.8-5.5,5.1
		L76.5,88.9z M73.8,82.1c-0.8,0-1.7,0.2-2,0.6c0,0.1-0.2,0.3,0,0.8c0.5,1.5,3.4,3.6,4.7,4.5c1.4-0.9,4.6-3.2,4.9-4.4
		c0.1-0.3,0-0.6-0.1-0.8c-0.3-0.5-1.1-0.6-1.5-0.6c-0.9,0.3-1.9,0.5-2.9,0.5C75.3,82.6,74.1,82.2,73.8,82.1"/>
	<path fill="#32347B" d="M83.2,69.5c0,5.7-3.1,10.3-7,10.3c-3.9,0-7-4.6-7.1-10.3c0-5.7,3.1-10.3,7-10.3
		C80,59.3,83.2,63.9,83.2,69.5"/>
	<path fill="#FFFFFF" d="M76.3,80.3c-4.1,0-7.4-4.8-7.5-10.7c0-5.9,3.3-10.7,7.4-10.7c4.1,0,7.5,4.8,7.5,10.7
		C83.7,75.4,80.3,80.2,76.3,80.3 M76.2,59.7c-3.6,0-6.6,4.5-6.6,9.9c0,5.4,3,9.9,6.7,9.9c3.6,0,6.6-4.5,6.6-9.9
		C82.8,64.1,79.8,59.7,76.2,59.7"/>
	<g opacity="0.99">
		<g>
			<defs>
				<polygon id="SVGID_21_" points="54.3,80.3 72.4,80.3 72.3,54.6 54.2,54.7 				"/>
			</defs>
			<clipPath id="SVGID_5_">
				<use xlink:href="#SVGID_21_"  overflow="visible"/>
			</clipPath>
			<path clip-path="url(#SVGID_5_)" fill="#32347B" d="M72,67.4c0,6.9-3.8,12.4-8.6,12.5c-4.8,0-8.7-5.6-8.7-12.4
				c0-6.8,3.8-12.4,8.6-12.4C68.1,55,72,60.6,72,67.4"/>
			<path clip-path="url(#SVGID_5_)" fill="#FFFFFF" d="M63.4,80.3c-5,0-9.1-5.7-9.1-12.8c0-7.1,4-12.8,9-12.8c5,0,9.1,5.7,9.1,12.8
				C72.4,74.5,68.4,80.3,63.4,80.3 M63.2,55.5c-4.5,0-8.2,5.4-8.2,12c0,6.7,3.7,12,8.3,12c4.6,0,8.2-5.4,8.2-12.1
				C71.5,60.8,67.8,55.5,63.2,55.5"/>
		</g>
	</g>
	<path fill="#32347B" d="M60.1,65c0,7.2-4,13-9,13c-5,0-9.1-5.8-9.1-13c0-7.1,4-13,9-13C56,52,60.1,57.8,60.1,65"/>
	<path fill="#FFFFFF" d="M51.1,78.4c-5.2,0-9.5-6-9.6-13.4c0-7.3,4.2-13.4,9.4-13.4c5.3,0,9.5,6,9.6,13.3
		C60.6,72.4,56.3,78.4,51.1,78.4 M51,52.5c-4.8,0-8.7,5.7-8.6,12.6c0,6.9,4,12.6,8.7,12.6c4.8,0,8.7-5.7,8.6-12.6
		C59.7,58.1,55.8,52.5,51,52.5"/>
	<path fill="#32347B" d="M66.5,81.7c-3,1.1-5.8,0-5.8,0s-3.2-0.1-2.4,1.9c0.7,2,5.1,4.8,5.1,4.8s4.9-3,5.2-4.8
		C69,81.8,66.5,81.7,66.5,81.7"/>
	<path fill="#FFFFFF" d="M63.3,89l-0.2-0.1c-0.2-0.1-4.5-2.8-5.2-5c-0.3-0.7-0.1-1.2,0.1-1.5c0.6-0.8,2-1,2.6-1l0.2,0
		c0,0,1.2,0.4,2.8,0.4c1,0,1.9-0.1,2.8-0.5l0.1,0l0.1,0c0.1,0,1.5,0.1,2.2,0.9c0.3,0.4,0.4,0.9,0.3,1.5c-0.4,1.9-5,4.8-5.4,5.1
		L63.3,89z M60.6,82.2c-0.8,0-1.7,0.1-1.9,0.6c-0.1,0.1-0.2,0.3,0,0.8c0.5,1.5,3.4,3.6,4.7,4.5c1.4-0.9,4.6-3.2,4.9-4.4
		c0.1-0.3,0-0.6-0.1-0.8c-0.4-0.4-1.2-0.6-1.5-0.6c-0.9,0.3-1.9,0.5-2.9,0.5C62.1,82.6,60.9,82.3,60.6,82.2"/>
	<g opacity="0.99">
		<g>
			<defs>
				<polygon id="SVGID_23_" points="42.9,111.9 87.9,111.7 87.8,83.1 42.8,83.3 				"/>
			</defs>
			<clipPath id="SVGID_6_">
				<use xlink:href="#SVGID_23_"  overflow="visible"/>
			</clipPath>
			<path clip-path="url(#SVGID_6_)" fill="#32347B" d="M43.8,111.5l36.2-0.1c0,0,21.2-18.7-8.1-27.7l-11.6,9.4L43.8,111.5z"/>
			<path clip-path="url(#SVGID_6_)" fill="#FFFFFF" d="M80.2,111.7l-37.3,0.2l17.2-19.1l11.7-9.6l0.2,0.1
				c9.2,2.8,14.5,6.9,15.6,12.1c1.8,8.1-6.9,15.9-7.3,16.2L80.2,111.7z M44.7,111.1l35.1-0.1c1-1,8.5-8.2,6.9-15.3
				c-1.1-4.9-6-8.8-14.8-11.5l-11.4,9.3L44.7,111.1z"/>
		</g>
	</g>
	<path fill="#32347B" d="M54.8,81.2c-3.8,1.4-7.3,0-7.3,0s-3.9-0.1-3,2.5c0.9,2.6,6.4,6.2,6.4,6.2s6.1-3.9,6.6-6.3
		C57.9,81.3,54.8,81.2,54.8,81.2"/>
	<path fill="#FFFFFF" d="M50.8,90.4l-0.2-0.1c-0.2-0.2-5.6-3.7-6.5-6.4c-0.3-0.7-0.2-1.4,0.2-1.9c0.7-1,2.4-1.2,3.1-1.2l0.3,0
		c0,0,1.5,0.6,3.5,0.6c1.2,0,2.4-0.2,3.4-0.6l0.1,0h0.1c0.1,0,1.8,0.1,2.7,1.1c0.3,0.5,0.5,1.1,0.4,1.8c-0.5,2.4-6.1,6.1-6.8,6.5
		L50.8,90.4z M47.4,81.6c-0.9,0-2.1,0.2-2.5,0.8c-0.2,0.3-0.2,0.7-0.1,1.1c0.8,2.2,5,5.2,6,5.8c1.8-1.2,5.8-4.1,6.2-5.8
		c0.1-0.4,0-0.8-0.2-1.1c-0.5-0.7-1.7-0.8-2-0.8c-1.1,0.4-2.4,0.6-3.6,0.6C49.2,82.2,47.8,81.7,47.4,81.6L47.4,81.6z"/>
	<path fill="#32347B" d="M40.6,83.6c-32,7.7-5.3,31.3-5.3,31.3l34.3-0.1c0,0,20.1-21.1-7.7-31.3L51,94.2L40.6,83.6z"/>
	<path fill="#FFFFFF" d="M69.8,115.2l-34.7,0.1l-0.1-0.1c-0.5-0.4-12.7-11.4-10.3-21c1.3-5.2,6.6-8.9,15.8-11.1l0.2-0.1L51,93.6
		L61.8,83l0.3,0.1c8.4,3.1,13.3,7.5,14.6,13c2.2,9.3-6.4,18.5-6.8,18.9L69.8,115.2z M35.4,114.5l34-0.1c1-1.1,8.4-9.7,6.5-18
		C74.7,91.1,70,86.9,62,84L50.9,94.7L40.5,84c-8.7,2.1-13.7,5.6-14.9,10.4C23.4,103.1,34.2,113.4,35.4,114.5"/>
	<polygon fill="#F3F3F7" points="58.2,103.8 50.6,103.8 50.5,92.2 52.1,92.2 52.2,102.2 58.2,102.2 	"/>
	<path fill="#FFFFFF" d="M61.3,102.7c0,1.5-1.3,2.6-2.9,2.7c-1.6,0-2.9-1.2-2.9-2.6c0-1.5,1.3-2.7,2.9-2.7
		C60,100,61.3,101.2,61.3,102.7"/>
	<path fill="#32347B" d="M218.2,134.8c-0.7,0-1.4-0.1-2.1-0.3c-0.7-0.2-1.4-0.4-2.1-0.8c-0.7-0.3-1.3-0.7-1.8-1.2
		c-0.5-0.4-1-1-1.3-1.5c-0.2-0.3-0.2-0.6-0.1-0.9c0.1-0.3,0.3-0.5,0.6-0.7c0.3-0.2,0.6-0.2,0.9-0.1c0.3,0.1,0.5,0.3,0.7,0.6
		c0.2,0.4,0.5,0.8,1,1.1c0.4,0.3,0.9,0.6,1.4,0.8c0.5,0.2,1,0.4,1.5,0.5c0.5,0.1,1,0.2,1.4,0.2c0.7,0,1.3-0.1,1.9-0.4
		c0.6-0.2,1.2-0.6,1.7-1c0.5-0.4,0.9-0.9,1.2-1.5c0.3-0.6,0.4-1.2,0.4-1.9c0-0.7-0.1-1.2-0.4-1.7c-0.3-0.5-0.6-0.9-1.1-1.3
		c-0.4-0.4-1-0.7-1.7-1c-0.6-0.3-1.3-0.5-2-0.8c-0.7-0.2-1.5-0.5-2.3-0.8c-0.8-0.3-1.6-0.7-2.3-1.2c-0.7-0.4-1.2-1-1.6-1.6
		c-0.5-0.6-0.7-1.3-0.7-2.1c0-0.9,0.2-1.7,0.6-2.5c0.4-0.7,0.9-1.3,1.6-1.8c0.7-0.5,1.4-0.9,2.2-1.1c0.8-0.2,1.6-0.4,2.4-0.4
		c0.6,0,1.1,0,1.7,0.1c0.6,0.1,1.1,0.2,1.7,0.4c0.6,0.2,1.1,0.5,1.6,0.9c0.5,0.4,1,0.9,1.4,1.5c0.2,0.3,0.3,0.6,0.2,1
		c-0.1,0.4-0.2,0.6-0.5,0.8c-0.3,0.2-0.6,0.3-0.9,0.2c-0.3-0.1-0.6-0.3-0.7-0.5c-0.3-0.5-0.6-0.9-1-1.2c-0.4-0.3-0.8-0.5-1.2-0.6
		c-0.4-0.1-0.8-0.2-1.2-0.3c-0.4,0-0.8,0-1.1,0c-0.5,0-1,0.1-1.6,0.2c-0.5,0.1-1,0.3-1.5,0.6c-0.4,0.3-0.8,0.6-1.1,1.1
		c-0.3,0.5-0.4,1-0.4,1.7c0,0.5,0.2,0.9,0.6,1.3c0.4,0.4,1,0.7,1.6,1c0.6,0.3,1.2,0.5,1.9,0.8c0.6,0.2,1.2,0.4,1.7,0.6
		c0.9,0.3,1.8,0.7,2.5,1.1c0.8,0.4,1.4,0.9,2,1.4c0.6,0.5,1,1.1,1.3,1.9c0.3,0.7,0.4,1.5,0.4,2.5c0,1-0.2,1.9-0.6,2.8
		c-0.4,0.9-1,1.6-1.6,2.2c-0.7,0.6-1.5,1.1-2.4,1.5C220.2,134.6,219.2,134.8,218.2,134.8"/>
	<path fill="#32347B" d="M218.2,134.9c-0.7,0-1.5-0.1-2.2-0.3c-0.7-0.2-1.4-0.4-2.1-0.7c-0.7-0.3-1.3-0.7-1.9-1.2
		c-0.6-0.5-1-1-1.3-1.6c-0.2-0.3-0.2-0.7-0.1-1c0.1-0.3,0.3-0.6,0.6-0.8c0.3-0.2,0.7-0.2,1-0.1c0.3,0.1,0.6,0.3,0.8,0.6
		c0.2,0.4,0.5,0.8,1,1.1c0.4,0.3,0.9,0.6,1.4,0.8c0.5,0.2,1,0.4,1.5,0.5c0.5,0.1,0.9,0.2,1.4,0.2c0.6,0,1.3-0.1,1.9-0.4
		c0.6-0.3,1.2-0.6,1.6-1c0.4-0.4,0.8-0.9,1.1-1.4c0.3-0.6,0.4-1.1,0.4-1.8c0-0.6-0.1-1.2-0.4-1.6c-0.2-0.5-0.6-0.9-1-1.2
		c-0.4-0.3-1-0.7-1.6-1c-0.6-0.3-1.3-0.5-2-0.8c-0.7-0.2-1.4-0.5-2.3-0.8c-0.9-0.4-1.6-0.8-2.3-1.2c-0.7-0.5-1.3-1-1.7-1.7
		c-0.5-0.6-0.7-1.4-0.7-2.2c0-0.9,0.2-1.8,0.7-2.5c0.4-0.7,0.9-1.4,1.6-1.9c0.7-0.5,1.4-0.9,2.3-1.2c1.4-0.4,2.7-0.5,4.1-0.3
		c0.6,0.1,1.2,0.2,1.7,0.5c0.6,0.2,1.2,0.5,1.7,0.9c0.5,0.4,1,0.9,1.5,1.5c0.2,0.3,0.3,0.7,0.3,1.1c0,0.4-0.2,0.7-0.6,0.9
		c-0.3,0.2-0.7,0.3-1,0.2c-0.3-0.1-0.6-0.3-0.8-0.6c-0.3-0.5-0.6-0.8-1-1.1c-0.4-0.3-0.8-0.5-1.1-0.6c-0.4-0.1-0.8-0.2-1.2-0.3
		c-0.9-0.1-1.7-0.1-2.6,0.1c-0.5,0.1-1,0.3-1.4,0.6c-0.4,0.3-0.8,0.6-1.1,1c-0.3,0.4-0.4,1-0.4,1.6c0,0.4,0.2,0.8,0.6,1.2
		c0.5,0.4,1,0.7,1.5,1c0.6,0.3,1.2,0.5,1.9,0.8c0.6,0.2,1.2,0.4,1.7,0.6c1,0.3,1.8,0.7,2.5,1.1c0.8,0.4,1.5,0.9,2,1.4
		c0.6,0.5,1,1.2,1.3,1.9c0.3,0.7,0.5,1.5,0.5,2.6c0,1-0.2,1.9-0.6,2.8c-0.4,0.9-1,1.6-1.7,2.3c-0.7,0.6-1.5,1.1-2.5,1.5
		C220.2,134.7,219.2,134.9,218.2,134.9 M211.9,129.4c-0.2,0-0.3,0.1-0.5,0.2c-0.3,0.2-0.4,0.4-0.5,0.6c-0.1,0.3,0,0.5,0.1,0.8
		c0.3,0.5,0.7,1,1.2,1.5c0.6,0.5,1.1,0.8,1.8,1.1c0.7,0.3,1.3,0.6,2.1,0.8c1.7,0.4,3.4,0.3,4.8-0.3c0.9-0.4,1.7-0.8,2.4-1.4
		c0.7-0.6,1.2-1.4,1.6-2.2c0.4-0.8,0.6-1.7,0.6-2.7c0-0.9-0.2-1.8-0.5-2.4c-0.3-0.7-0.7-1.3-1.3-1.8c-0.5-0.5-1.1-0.9-1.9-1.4
		c-0.7-0.4-1.5-0.7-2.5-1.1c-0.5-0.2-1.1-0.4-1.7-0.6c-0.7-0.2-1.3-0.5-1.9-0.8c-0.5-0.3-1.1-0.6-1.6-1c-0.5-0.5-0.7-0.9-0.7-1.4
		c0-0.7,0.2-1.3,0.4-1.8c0.3-0.5,0.7-0.8,1.2-1.1c0.5-0.3,1-0.5,1.5-0.6c0.9-0.2,1.7-0.2,2.6-0.1c0.4,0.1,0.9,0.1,1.2,0.3
		c0.4,0.1,0.8,0.4,1.3,0.7c0.4,0.3,0.8,0.7,1,1.2c0.2,0.2,0.4,0.4,0.6,0.5c0.3,0.1,0.5,0,0.8-0.1c0.3-0.1,0.4-0.4,0.4-0.7
		c0.1-0.3,0-0.6-0.2-0.9c-0.4-0.6-0.9-1.1-1.4-1.5c-0.5-0.4-1-0.7-1.6-0.9c-0.6-0.2-1.1-0.4-1.6-0.4c-0.6-0.1-1.2-0.1-1.7-0.1
		c-0.8,0-1.5,0.1-2.4,0.4c-0.8,0.2-1.5,0.6-2.2,1.1c-0.7,0.5-1.2,1.1-1.6,1.8c-0.4,0.7-0.6,1.5-0.6,2.4c0,0.8,0.2,1.4,0.7,2
		c0.4,0.6,0.9,1.1,1.6,1.6c0.6,0.4,1.4,0.8,2.2,1.2c0.9,0.3,1.6,0.6,2.3,0.8c0.7,0.3,1.4,0.5,2.1,0.8c0.7,0.3,1.2,0.6,1.7,1
		c0.5,0.4,0.9,0.8,1.1,1.3c0.3,0.5,0.4,1.1,0.4,1.8c0,0.7-0.1,1.3-0.4,1.9c-0.3,0.6-0.7,1.1-1.2,1.5c-0.5,0.4-1,0.8-1.7,1
		c-0.6,0.3-1.3,0.4-2,0.4c-0.4,0-0.9-0.1-1.4-0.2c-0.5-0.1-1.1-0.3-1.6-0.5c-0.5-0.2-1-0.5-1.4-0.8c-0.5-0.4-0.8-0.7-1-1.2
		c-0.1-0.2-0.4-0.4-0.6-0.5C212.1,129.4,212,129.4,211.9,129.4"/>
	<path fill="#32347B" d="M237.6,117c1.2,0,2.3,0.2,3.3,0.7c1.1,0.4,2,1.1,2.8,1.9c0.8,0.8,1.4,1.8,1.9,2.8c0.5,1.1,0.7,2.2,0.7,3.4
		l0,7.7c0,0.3-0.1,0.6-0.3,0.8c-0.2,0.2-0.5,0.3-0.8,0.3c-0.3,0-0.6-0.1-0.8-0.3c-0.3-0.2-0.4-0.5-0.4-0.8l0-2.2
		c-0.8,0.9-1.8,1.7-2.9,2.4c-1.1,0.6-2.3,1-3.7,1c-1.2,0-2.3-0.2-3.4-0.6c-1.1-0.4-2-1-2.8-1.8c-0.8-0.8-1.4-1.7-1.9-2.8
		c-0.5-1.1-0.7-2.2-0.7-3.5c0-1.2,0.2-2.4,0.7-3.4c0.4-1.1,1-2,1.8-2.8c0.8-0.8,1.7-1.4,2.8-1.9C235.2,117.2,236.4,117,237.6,117
		 M231.1,125.9c0,0.9,0.2,1.8,0.5,2.5c0.4,0.8,0.8,1.5,1.4,2.1c0.6,0.6,1.3,1.1,2.1,1.4c0.8,0.3,1.7,0.5,2.5,0.5
		c0.9,0,1.7-0.2,2.5-0.5c0.8-0.3,1.5-0.8,2-1.4c0.6-0.6,1.1-1.3,1.4-2.1c0.3-0.8,0.5-1.7,0.6-2.6c0-0.9-0.2-1.7-0.5-2.5
		c-0.3-0.8-0.8-1.5-1.4-2.1c-0.6-0.6-1.3-1.1-2.1-1.4c-0.8-0.4-1.6-0.5-2.6-0.5c-0.9,0-1.8,0.2-2.5,0.5c-0.8,0.3-1.5,0.8-2.1,1.4
		c-0.6,0.6-1.1,1.3-1.4,2.1C231.2,124.2,231.1,125,231.1,125.9"/>
	<path fill="#32347B" d="M245.4,134.8c-0.4,0-0.7-0.1-0.9-0.4c-0.2-0.2-0.4-0.5-0.4-0.9l0-1.8c-0.8,0.8-1.6,1.5-2.7,2.1
		c-1.1,0.7-2.4,1-3.7,1c-1.2,0-2.4-0.2-3.5-0.6c-1.1-0.4-2-1.1-2.8-1.9c-0.8-0.8-1.5-1.7-1.9-2.8c-0.5-1.1-0.7-2.3-0.7-3.5
		c0-1.3,0.2-2.5,0.6-3.5c0.4-1.1,1.1-2.1,1.9-2.9c0.8-0.8,1.8-1.5,2.8-1.9c1.1-0.5,2.2-0.7,3.6-0.7c1.2,0,2.4,0.2,3.4,0.7
		c1.1,0.5,2,1.1,2.8,2c0.8,0.8,1.5,1.7,2,2.8c0.5,1.1,0.7,2.3,0.7,3.5l0,7.7c0,0.3-0.1,0.7-0.4,0.9
		C246,134.7,245.7,134.8,245.4,134.8 M244.4,130.9l0,2.6c0,0.3,0.1,0.5,0.3,0.7c0.2,0.2,0.4,0.3,0.7,0.3c0.3,0,0.5-0.1,0.7-0.3
		c0.2-0.2,0.3-0.4,0.3-0.7l0-7.7c0-1.2-0.2-2.3-0.7-3.4c-0.5-1.1-1.1-2-1.9-2.8c-0.8-0.8-1.7-1.4-2.8-1.9c-1-0.5-2.1-0.7-3.3-0.7
		c-1.3,0-2.4,0.2-3.5,0.7c-1,0.5-2,1.1-2.8,1.9c-0.8,0.8-1.4,1.7-1.8,2.8c-0.5,1-0.7,2.2-0.7,3.4c0,1.2,0.2,2.4,0.7,3.4
		c0.5,1,1.1,2,1.9,2.7c0.8,0.8,1.7,1.4,2.7,1.8c1.1,0.4,2.2,0.6,3.4,0.6c1.3,0,2.5-0.3,3.6-1c1.1-0.6,2.1-1.4,2.9-2.3L244.4,130.9z
		 M237.6,132.6c-0.9,0-1.8-0.2-2.6-0.5c-0.8-0.3-1.5-0.8-2.1-1.4c-0.6-0.6-1.1-1.3-1.5-2.1c-0.4-0.8-0.5-1.7-0.5-2.6
		c0-0.9,0.2-1.8,0.5-2.6c0.3-0.8,0.8-1.5,1.4-2.1c0.6-0.6,1.3-1.1,2.1-1.5c0.8-0.4,1.7-0.5,2.6-0.5c0.9,0,1.8,0.2,2.6,0.5
		c0.8,0.3,1.5,0.8,2.1,1.4c0.6,0.6,1.1,1.3,1.4,2.1c0.4,0.8,0.5,1.7,0.5,2.6c-0.1,1-0.3,1.9-0.6,2.7c-0.4,0.8-0.8,1.5-1.4,2.1
		c-0.6,0.6-1.3,1.1-2.1,1.4C239.4,132.4,238.5,132.6,237.6,132.6 M237.6,119.5c-0.9,0-1.7,0.2-2.5,0.5c-0.8,0.3-1.4,0.8-2,1.4
		c-0.6,0.6-1,1.3-1.4,2.1c-0.3,0.8-0.5,1.6-0.5,2.5c0,0.9,0.2,1.7,0.5,2.5c0.3,0.8,0.8,1.4,1.4,2c0.6,0.6,1.3,1,2,1.3
		c0.8,0.3,1.6,0.5,2.5,0.5c0.8,0,1.6-0.2,2.4-0.5c0.8-0.3,1.4-0.8,2-1.3c0.6-0.6,1-1.3,1.4-2c0.4-0.8,0.6-1.6,0.6-2.5
		c0-0.9-0.2-1.7-0.5-2.5c-0.4-0.8-0.8-1.5-1.4-2c-0.6-0.6-1.3-1-2.1-1.3C239.3,119.6,238.5,119.5,237.6,119.5"/>
	<path fill="#32347B" d="M250,112.4c0-0.3,0.1-0.6,0.3-0.8c0.2-0.2,0.5-0.3,0.8-0.3c0.3,0,0.6,0.1,0.8,0.3c0.2,0.2,0.3,0.5,0.3,0.8
		l0.1,21.1c0,0.3-0.1,0.6-0.3,0.8c-0.2,0.2-0.5,0.3-0.8,0.3c-0.3,0-0.6-0.1-0.8-0.3c-0.2-0.2-0.4-0.5-0.4-0.8L250,112.4z"/>
	<path fill="#32347B" d="M251.3,134.8c-0.4,0-0.7-0.1-0.9-0.4c-0.2-0.2-0.4-0.6-0.4-0.9l-0.1-21.1c0-0.4,0.1-0.7,0.4-0.9
		c0.3-0.2,0.6-0.4,0.9-0.4c0.3,0,0.6,0.1,0.9,0.4c0.2,0.3,0.4,0.6,0.4,0.9l0.1,21.1c0,0.3-0.1,0.7-0.4,0.9
		C251.9,134.7,251.6,134.8,251.3,134.8 M251.2,111.5c-0.3,0-0.5,0.1-0.7,0.3c-0.2,0.2-0.3,0.4-0.3,0.7l0.1,21.1
		c0,0.3,0.1,0.5,0.3,0.7c0.2,0.2,0.4,0.3,0.7,0.3c0.3,0,0.5-0.1,0.7-0.3c0.2-0.2,0.3-0.4,0.3-0.7l-0.1-21.1c0-0.3-0.1-0.5-0.3-0.7
		C251.7,111.6,251.4,111.5,251.2,111.5"/>
	<path fill="#32347B" d="M257.3,116.9c0.3,0,0.6,0.1,0.8,0.3c0.2,0.2,0.3,0.5,0.3,0.8l0.1,10c0,0.6,0.1,1.1,0.3,1.7
		c0.2,0.5,0.5,1,0.9,1.4c0.4,0.4,0.9,0.7,1.4,0.9c0.5,0.2,1.1,0.3,1.7,0.3c0.6,0,1.1-0.1,1.6-0.4c0.5-0.2,1-0.5,1.3-0.9
		c0.4-0.4,0.7-0.8,0.9-1.3c0.2-0.5,0.4-1,0.4-1.6l0-10.2c0-0.3,0.1-0.6,0.3-0.8c0.2-0.2,0.5-0.3,0.8-0.3c0.3,0,0.6,0.1,0.8,0.3
		c0.2,0.2,0.3,0.5,0.3,0.8l0.1,15.4c0,0.3-0.1,0.6-0.3,0.8c-0.2,0.2-0.5,0.3-0.8,0.3c-0.3,0-0.6-0.1-0.8-0.3
		c-0.2-0.2-0.3-0.5-0.3-0.8l0-0.5c-0.6,0.5-1.2,0.9-2,1.1c-0.7,0.3-1.5,0.4-2.3,0.5c-0.9,0-1.8-0.2-2.6-0.5
		c-0.8-0.3-1.5-0.8-2.1-1.4c-0.6-0.6-1.1-1.3-1.4-2.1c-0.3-0.8-0.5-1.7-0.5-2.6l0-10c0-0.3,0.1-0.6,0.3-0.8
		C256.7,117,257,116.9,257.3,116.9"/>
	<path fill="#32347B" d="M268.2,134.7c-0.3,0-0.7-0.1-0.9-0.4c-0.3-0.3-0.4-0.6-0.4-0.9l0-0.1c-0.5,0.4-1.1,0.7-1.7,1
		c-0.7,0.3-1.5,0.4-2.4,0.5c-0.9,0-1.8-0.2-2.6-0.5c-0.8-0.3-1.5-0.8-2.2-1.4c-0.6-0.6-1.1-1.3-1.4-2.1c-0.4-0.8-0.5-1.7-0.5-2.6
		l0-10c0-0.3,0.1-0.7,0.4-0.9c0.2-0.3,0.6-0.4,0.9-0.4c0.3,0,0.6,0.1,0.9,0.4c0.3,0.2,0.4,0.5,0.4,0.9l0,10c0,0.6,0.1,1.1,0.3,1.6
		c0.2,0.5,0.5,0.9,0.9,1.3c0.4,0.4,0.8,0.7,1.3,0.9c0.5,0.2,1,0.3,1.6,0.3c0.6,0,1.1-0.1,1.6-0.3c0.4-0.2,0.9-0.5,1.3-0.9
		c0.4-0.4,0.6-0.8,0.9-1.3c0.2-0.5,0.3-1,0.4-1.5l0-10.2c0-0.4,0.1-0.7,0.4-0.9c0.2-0.2,0.6-0.4,0.9-0.4c0.4,0,0.7,0.1,0.9,0.4
		c0.2,0.3,0.4,0.6,0.4,0.9l0.1,15.4c0,0.3-0.1,0.7-0.3,0.9C268.9,134.6,268.6,134.7,268.2,134.7 M267.3,132.6l0,0.8
		c0,0.3,0.1,0.5,0.3,0.7c0.2,0.2,0.4,0.3,0.7,0.3c0.3,0,0.5-0.1,0.7-0.3c0.2-0.2,0.3-0.4,0.3-0.7l-0.1-15.4c0-0.3-0.1-0.5-0.3-0.7
		c-0.4-0.4-1-0.4-1.4,0c-0.2,0.2-0.3,0.4-0.3,0.7l0,10.2c0,0.6-0.1,1.1-0.4,1.6c-0.2,0.5-0.6,0.9-1,1.3c-0.4,0.4-0.9,0.7-1.4,0.9
		c-0.5,0.2-1.1,0.4-1.7,0.4c-0.6,0-1.2-0.1-1.7-0.4c-0.5-0.2-1-0.5-1.4-0.9c-0.4-0.4-0.7-0.9-1-1.4c-0.2-0.5-0.4-1.1-0.4-1.7l0-10
		c0-0.3-0.1-0.5-0.3-0.7c-0.2-0.2-0.4-0.3-0.7-0.3c-0.3,0-0.5,0.1-0.7,0.3c-0.2,0.2-0.3,0.4-0.3,0.7l0,10c0,0.9,0.2,1.7,0.5,2.5
		c0.4,0.8,0.8,1.5,1.4,2c0.6,0.6,1.3,1.1,2,1.4c0.8,0.3,1.6,0.5,2.5,0.5c0.9,0,1.6-0.1,2.3-0.4c0.7-0.3,1.3-0.7,1.9-1.1L267.3,132.6
		z"/>
	<path fill="#32347B" d="M281.5,116.9c1.4,0,2.6,0.4,3.7,1c1.1,0.6,2.1,1.4,2.9,2.3l0-7.8c0-0.3,0.1-0.6,0.3-0.8
		c0.2-0.2,0.5-0.3,0.8-0.3c0.3,0,0.6,0.1,0.8,0.3c0.2,0.2,0.3,0.5,0.3,0.8l0.1,21c0,0.3-0.1,0.6-0.3,0.8c-0.2,0.2-0.5,0.3-0.8,0.3
		c-0.3,0-0.6-0.1-0.8-0.3c-0.2-0.2-0.3-0.5-0.3-0.8l0-1.7l-0.3,0.3c-0.8,0.8-1.7,1.4-2.8,1.8c-1,0.5-2.2,0.7-3.4,0.7
		c-1.2,0-2.4-0.2-3.5-0.7c-1.1-0.4-2-1.1-2.8-1.9c-0.8-0.8-1.4-1.7-1.9-2.8c-0.4-1-0.7-2.2-0.7-3.4c0-1.2,0.2-2.3,0.7-3.4
		c0.5-1.1,1.1-2,1.9-2.8c0.8-0.8,1.7-1.4,2.8-1.9C279.2,117.1,280.3,116.9,281.5,116.9 M288.1,125.7c-0.1-1-0.3-1.8-0.6-2.6
		c-0.3-0.8-0.8-1.5-1.4-2.1c-0.6-0.6-1.3-1-2-1.4c-0.8-0.3-1.6-0.5-2.5-0.5c-0.9,0-1.7,0.2-2.6,0.5c-0.8,0.3-1.5,0.8-2.1,1.4
		c-0.6,0.6-1.1,1.3-1.4,2.1c-0.4,0.8-0.5,1.7-0.5,2.6c0,0.9,0.1,1.7,0.5,2.5c0.3,0.8,0.8,1.5,1.4,2.1c0.6,0.6,1.3,1.1,2.1,1.4
		c0.8,0.3,1.6,0.5,2.6,0.5c0.9,0,1.7-0.2,2.5-0.5c0.8-0.3,1.5-0.8,2.1-1.4c0.6-0.6,1.1-1.3,1.4-2.1
		C287.9,127.4,288.1,126.6,288.1,125.7"/>
	<path fill="#32347B" d="M289.2,134.6c-0.3,0-0.7-0.1-0.9-0.4c-0.3-0.2-0.4-0.6-0.4-0.9l0-1.3l-0.1,0.1c-0.8,0.8-1.7,1.4-2.8,1.9
		c-1.1,0.4-2.3,0.7-3.5,0.7c-1.2,0-2.4-0.2-3.5-0.7c-1.1-0.5-2.1-1.1-2.8-1.9c-0.9-0.9-1.5-1.8-1.9-2.8c-0.5-1.1-0.7-2.2-0.7-3.4
		c0-1.2,0.2-2.4,0.7-3.5c0.5-1.1,1.2-2,2-2.9c0.8-0.8,1.8-1.5,2.8-2c1.1-0.5,2.2-0.7,3.4-0.7c1.4,0,2.7,0.4,3.8,1
		c1,0.6,1.9,1.3,2.7,2l0-7.5c0-0.4,0.1-0.7,0.3-0.9c0.3-0.2,0.6-0.4,0.9-0.4c0.4,0,0.7,0.1,0.9,0.4c0.2,0.3,0.4,0.6,0.4,0.9
		l0.1,21.1c0,0.3-0.1,0.7-0.4,0.9C289.9,134.5,289.6,134.6,289.2,134.6 M288.3,131.3l0,2.1c0,0.3,0.1,0.5,0.3,0.7
		c0.2,0.2,0.4,0.3,0.7,0.3c0.3,0,0.5-0.1,0.7-0.3c0.2-0.2,0.3-0.4,0.3-0.7l-0.1-21.1c0-0.3-0.1-0.5-0.3-0.7
		c-0.2-0.2-0.4-0.3-0.7-0.3c-0.3,0-0.5,0.1-0.7,0.3c-0.2,0.2-0.3,0.4-0.3,0.7l0,8.2l-0.2-0.3c-0.8-0.8-1.8-1.6-2.9-2.2
		c-1.1-0.6-2.3-1-3.7-1c-1.2,0-2.2,0.2-3.2,0.7c-1.1,0.5-2,1.1-2.8,1.9c-0.8,0.8-1.4,1.7-1.9,2.8c-0.5,1.1-0.7,2.2-0.7,3.4
		c0,1.2,0.2,2.3,0.7,3.3c0.4,1,1.1,1.9,1.8,2.7c0.8,0.8,1.7,1.4,2.8,1.9c1.1,0.4,2.2,0.7,3.4,0.7c1.2,0,2.3-0.2,3.3-0.7
		c1.1-0.4,2-1,2.7-1.8L288.3,131.3z M281.6,132.4c-0.9,0-1.8-0.2-2.6-0.5c-0.8-0.3-1.5-0.8-2.2-1.4c-0.6-0.6-1.1-1.3-1.4-2.1
		c-0.3-0.8-0.5-1.6-0.5-2.6c0-1,0.2-1.8,0.5-2.6c0.3-0.8,0.8-1.6,1.4-2.1c0.6-0.6,1.4-1.1,2.2-1.5c0.8-0.4,1.7-0.5,2.6-0.5
		c0.9,0,1.8,0.1,2.5,0.5c0.8,0.3,1.5,0.8,2.1,1.4c0.6,0.6,1.1,1.3,1.5,2.1c0.4,0.8,0.6,1.7,0.6,2.7c0,0.9-0.2,1.8-0.5,2.6
		c-0.3,0.8-0.8,1.5-1.4,2.1c-0.6,0.6-1.3,1.1-2.1,1.4C283.4,132.2,282.5,132.4,281.6,132.4 M281.5,119.3c-0.9,0-1.7,0.2-2.5,0.5
		c-0.8,0.3-1.5,0.8-2,1.4c-0.6,0.6-1,1.3-1.4,2.1c-0.3,0.8-0.5,1.6-0.5,2.5c0,0.9,0.2,1.7,0.5,2.5c0.3,0.8,0.8,1.4,1.4,2
		c0.6,0.6,1.3,1,2,1.4c1.6,0.7,3.4,0.7,5,0c0.8-0.3,1.5-0.8,2.1-1.4c0.6-0.6,1-1.3,1.3-2c0.3-0.8,0.5-1.6,0.5-2.5
		c0-0.9-0.3-1.8-0.6-2.6c-0.3-0.8-0.8-1.5-1.4-2c-0.6-0.6-1.2-1-2-1.3C283.2,119.5,282.4,119.3,281.5,119.3"/>
	<path fill="#32347B" d="M307.4,134.4c-0.3,0-0.6-0.1-0.8-0.3c-0.2-0.2-0.3-0.5-0.3-0.8l-0.1-21.1c0-0.3,0.1-0.6,0.3-0.8
		c0.2-0.2,0.5-0.3,0.8-0.3l6.3,0c1.6,0,3.1,0.3,4.5,0.9c1.4,0.6,2.7,1.4,3.7,2.5c1.1,1.1,1.9,2.3,2.5,3.7c0.6,1.4,0.9,2.9,0.9,4.5
		c0,1.6-0.3,3.1-0.9,4.6c-0.6,1.4-1.4,2.7-2.5,3.7c-1.1,1.1-2.3,1.9-3.7,2.5c-1.4,0.6-2.9,0.9-4.5,0.9L307.4,134.4z M323,122.7
		c0-1.3-0.3-2.5-0.8-3.6c-0.5-1.2-1.1-2.1-2-3c-0.9-0.8-1.8-1.5-3-2c-1.1-0.5-2.3-0.7-3.6-0.7l-5.1,0l0.1,18.8l5.1,0
		c1.3,0,2.5-0.3,3.6-0.8c1.1-0.5,2.1-1.2,3-2.1c0.8-0.9,1.5-1.8,2-3C322.7,125.2,323,123.9,323,122.7"/>
	<path fill="#32347B" d="M313.6,134.5l-6.3,0c-0.3,0-0.7-0.1-0.9-0.4c-0.3-0.2-0.4-0.5-0.4-0.9l-0.1-21.1c0-0.4,0.1-0.7,0.4-0.9
		c0.3-0.2,0.6-0.4,0.9-0.4l6.3,0c1.6,0,3.1,0.3,4.6,0.9c1.4,0.6,2.7,1.4,3.8,2.5c1.1,1.1,1.9,2.3,2.5,3.7c0.6,1.4,0.9,2.9,0.9,4.6
		c0,1.7-0.3,3.2-0.9,4.6c-0.6,1.4-1.4,2.7-2.5,3.8c-1.1,1.1-2.3,1.9-3.8,2.5C316.8,134.2,315.2,134.5,313.6,134.5 M307.3,111.2
		c-0.3,0-0.5,0.1-0.7,0.3c-0.2,0.2-0.3,0.4-0.3,0.7l0.1,21.1c0,0.3,0.1,0.5,0.3,0.7c0.2,0.2,0.4,0.3,0.7,0.3l6.3,0
		c1.6,0,3.1-0.3,4.5-0.9c1.4-0.6,2.6-1.4,3.6-2.5c1-1,1.9-2.3,2.4-3.7c0.6-1.4,0.9-2.9,0.9-4.5c0-1.6-0.3-3.1-0.9-4.4
		c-0.6-1.4-1.4-2.6-2.5-3.7c-1.1-1.1-2.3-1.9-3.7-2.4c-1.4-0.6-2.9-0.9-4.4-0.9L307.3,111.2z M313.6,132.3l-5.3,0l-0.1-19.1l5.3,0
		c1.3,0,2.5,0.2,3.7,0.7c1.2,0.5,2.2,1.2,3,2c0.9,0.9,1.6,1.9,2.1,3c0.5,1.2,0.8,2.4,0.8,3.7c0,1.3-0.3,2.6-0.8,3.7
		c-0.5,1.1-1.1,2.1-2,3c-0.9,0.9-1.9,1.6-3,2.1C316.2,132,315,132.3,313.6,132.3 M308.7,132l5,0c1.3,0,2.5-0.2,3.6-0.7
		c1.1-0.5,2.1-1.2,2.9-2c0.9-0.9,1.5-1.8,2-3c0.5-1.1,0.7-2.3,0.7-3.6c0-1.3-0.3-2.5-0.8-3.6c-0.5-1.1-1.1-2.1-2-2.9
		c-0.9-0.8-1.8-1.5-3-2c-1.1-0.5-2.3-0.7-3.6-0.7l-5,0L308.7,132z"/>
	<path fill="#32347B" d="M337.4,116.6c1.2,0,2.3,0.2,3.3,0.7c1.1,0.5,2,1.1,2.8,1.9c0.8,0.8,1.5,1.7,1.9,2.8
		c0.5,1.1,0.7,2.2,0.7,3.5c0,1.2-0.2,2.3-0.7,3.4c-0.5,1.1-1.1,2-1.9,2.8c-0.8,0.8-1.7,1.4-2.8,1.9c-1.1,0.5-2.2,0.7-3.5,0.7
		c-1.2,0-2.3-0.2-3.4-0.6c-1.1-0.4-2-1.1-2.8-1.8c-0.8-0.8-1.5-1.7-1.9-2.8c-0.4-1.1-0.7-2.2-0.7-3.5c0-1.2,0.2-2.4,0.6-3.4
		c0.5-1.1,1.1-2,1.9-2.8c0.8-0.8,1.7-1.4,2.8-1.9C335,116.9,336.1,116.7,337.4,116.6 M330.8,125.5c0,0.9,0.2,1.8,0.5,2.5
		c0.4,0.8,0.8,1.5,1.4,2.1c0.6,0.6,1.3,1.1,2.1,1.4c0.8,0.3,1.6,0.5,2.5,0.5c0.9,0,1.7-0.2,2.5-0.5c0.8-0.3,1.5-0.8,2.1-1.4
		c0.6-0.6,1.1-1.3,1.4-2.1c0.3-0.8,0.5-1.6,0.5-2.5c0-0.9-0.2-1.8-0.5-2.6c-0.4-0.8-0.8-1.5-1.4-2.1c-0.6-0.6-1.3-1.1-2.1-1.4
		c-0.8-0.3-1.6-0.5-2.6-0.5c-0.9,0-1.7,0.2-2.5,0.5c-0.8,0.3-1.5,0.8-2.1,1.4c-0.6,0.6-1,1.3-1.4,2.1
		C331,123.8,330.8,124.6,330.8,125.5"/>
	<path fill="#32347B" d="M337.4,134.4c-1.2,0-2.4-0.2-3.5-0.6c-1.1-0.5-2-1.1-2.8-1.9c-0.8-0.8-1.5-1.7-2-2.8
		c-0.5-1.1-0.7-2.3-0.7-3.6c0-1.2,0.2-2.4,0.7-3.5c0.5-1.1,1.1-2,1.9-2.8c0.8-0.8,1.7-1.4,2.9-1.9c1.1-0.5,2.3-0.8,3.6-0.8
		c1.2,0,2.3,0.2,3.4,0.7c1.1,0.5,2,1.1,2.9,1.9c0.8,0.8,1.5,1.8,2,2.8c0.5,1.1,0.7,2.3,0.7,3.5c0,1.2-0.2,2.4-0.7,3.4
		c-0.5,1.1-1.1,2-1.9,2.8c-0.8,0.8-1.7,1.5-2.8,1.9C339.8,134.1,338.6,134.4,337.4,134.4 M337.4,116.8c-1.3,0-2.4,0.3-3.5,0.8
		c-1.1,0.5-2,1.1-2.8,1.9c-0.8,0.8-1.4,1.7-1.8,2.7c-0.4,1.1-0.6,2.2-0.6,3.4c0,1.2,0.3,2.4,0.7,3.4c0.4,1,1.1,1.9,1.9,2.7
		c0.8,0.8,1.7,1.4,2.7,1.8c1.1,0.4,2.1,0.6,3.3,0.6c1.2,0,2.4-0.3,3.4-0.7c1.1-0.5,2-1.1,2.7-1.9c0.8-0.8,1.4-1.7,1.8-2.8
		c0.4-1,0.7-2.2,0.7-3.3c0-1.2-0.2-2.3-0.7-3.4c-0.4-1.1-1.1-2-1.9-2.8c-0.8-0.8-1.7-1.4-2.7-1.9C339.6,117,338.5,116.8,337.4,116.8
		 M337.4,132.2c-0.9,0-1.8-0.2-2.6-0.5c-0.8-0.3-1.5-0.8-2.1-1.4c-0.6-0.6-1.1-1.3-1.4-2.1c-0.4-0.8-0.5-1.7-0.6-2.6
		c0-0.9,0.2-1.8,0.5-2.6c0.3-0.8,0.8-1.5,1.4-2.2c0.7-0.6,1.4-1.1,2.1-1.4c0.8-0.4,1.7-0.5,2.6-0.5c0.9,0,1.8,0.2,2.6,0.5
		c0.8,0.3,1.5,0.8,2.1,1.4c0.6,0.6,1.1,1.3,1.5,2.1c0.3,0.8,0.5,1.7,0.5,2.6c0,0.9-0.2,1.8-0.5,2.6c-0.3,0.8-0.8,1.5-1.4,2.1
		c-0.6,0.6-1.3,1.1-2.1,1.4C339.2,132,338.3,132.2,337.4,132.2 M337.3,119.1c-0.9,0-1.7,0.2-2.5,0.5c-0.8,0.3-1.4,0.8-2,1.4
		c-0.6,0.6-1,1.3-1.3,2.1c-0.3,0.8-0.5,1.6-0.5,2.5c0,0.9,0.2,1.7,0.5,2.5c0.3,0.8,0.8,1.4,1.4,2c0.6,0.6,1.3,1,2.1,1.4
		c1.5,0.7,3.4,0.7,5,0c0.8-0.3,1.5-0.8,2.1-1.4c0.6-0.6,1-1.3,1.3-2c0.4-0.8,0.5-1.6,0.5-2.5c0-0.9-0.1-1.7-0.5-2.5
		c-0.3-0.8-0.8-1.5-1.4-2c-0.6-0.6-1.3-1-2-1.4C339.1,119.2,338.2,119.1,337.3,119.1"/>
	<path fill="#32347B" d="M349.6,117.6c0-0.3,0.1-0.6,0.3-0.8c0.2-0.2,0.5-0.3,0.8-0.3c0.3,0,0.6,0.1,0.8,0.3
		c0.2,0.2,0.3,0.5,0.3,0.8l0,0.4c0.4-0.4,0.9-0.8,1.6-1.1c0.6-0.3,1.4-0.5,2.1-0.5c1,0,1.9,0.2,2.8,0.6c0.8,0.5,1.5,1.1,2,1.8
		c0.6-0.8,1.3-1.4,2.1-1.8c0.9-0.4,1.7-0.7,2.8-0.7c0.8,0,1.6,0.1,2.3,0.5c0.8,0.3,1.4,0.7,1.9,1.3c0.5,0.5,1,1.2,1.3,1.9
		c0.3,0.7,0.5,1.5,0.5,2.3l0,10.7c0,0.3-0.1,0.6-0.3,0.8c-0.2,0.2-0.5,0.3-0.8,0.3c-0.3,0-0.5-0.1-0.8-0.3c-0.2-0.2-0.3-0.5-0.3-0.8
		l0-10.7c0-0.5-0.1-1-0.3-1.5c-0.2-0.4-0.5-0.8-0.8-1.2c-0.3-0.3-0.7-0.6-1.2-0.8c-0.5-0.2-0.9-0.3-1.4-0.3c-0.5,0-1,0.1-1.4,0.3
		c-0.5,0.2-0.8,0.5-1.2,0.8c-0.3,0.3-0.6,0.7-0.8,1.2c-0.2,0.5-0.3,0.9-0.3,1.4l0,10.8c0,0.3-0.1,0.6-0.3,0.8
		c-0.2,0.2-0.5,0.3-0.8,0.3c-0.3,0-0.6-0.1-0.8-0.3c-0.2-0.2-0.3-0.5-0.3-0.8l0-10.8c0-1.1-0.4-2-1.1-2.7c-0.7-0.7-1.6-1-2.6-1
		c-1,0-1.9,0.4-2.6,1.1c-0.7,0.7-1,1.5-1.1,2.6l0.1,10.9c0,0.3-0.1,0.6-0.3,0.8c-0.2,0.2-0.5,0.3-0.8,0.3c-0.3,0-0.6-0.1-0.8-0.3
		c-0.2-0.2-0.3-0.5-0.3-0.8L349.6,117.6z"/>
	<path fill="#32347B" d="M370.1,134.3c-0.3,0-0.6-0.1-0.9-0.4c-0.2-0.3-0.4-0.6-0.4-0.9l0-10.7c0-0.5-0.1-1-0.3-1.4
		c-0.2-0.4-0.4-0.8-0.8-1.1c-0.3-0.3-0.7-0.6-1.1-0.8c-0.9-0.4-1.9-0.4-2.7,0c-0.4,0.2-0.8,0.4-1.1,0.8c-0.3,0.3-0.6,0.7-0.8,1.1
		c-0.2,0.5-0.3,0.9-0.3,1.4l0.1,10.8c0,0.3-0.1,0.6-0.4,0.9c-0.3,0.2-0.6,0.4-0.9,0.4c-0.4,0-0.7-0.1-0.9-0.4
		c-0.3-0.2-0.4-0.6-0.4-0.9l0-10.7c-0.1-1-0.4-1.9-1.1-2.5c-0.7-0.7-1.5-1-2.5-1c-1,0-1.8,0.3-2.5,1c-0.6,0.7-1,1.5-1,2.4l0,10.9
		c0,0.4-0.1,0.7-0.4,0.9c-0.2,0.3-0.6,0.4-0.9,0.4c-0.4,0-0.7-0.1-0.9-0.4c-0.2-0.3-0.4-0.6-0.4-0.9l0-15.5c0-0.3,0.1-0.7,0.4-0.9
		c0.2-0.2,0.6-0.4,0.9-0.4c0.4,0,0.7,0.1,0.9,0.4c0.3,0.3,0.4,0.6,0.4,0.9v0c0.4-0.3,0.9-0.6,1.4-0.9c0.7-0.4,1.4-0.6,2.1-0.5
		c1,0,2,0.2,2.8,0.7c0.8,0.4,1.5,1,2,1.7c0.5-0.7,1.2-1.3,2-1.7c0.9-0.5,1.8-0.7,2.9-0.7c0.8,0,1.6,0.2,2.4,0.5
		c0.8,0.3,1.4,0.8,1.9,1.3c0.6,0.5,1,1.2,1.3,1.9c0.3,0.8,0.5,1.5,0.5,2.4l0,10.7c0,0.4-0.1,0.7-0.4,0.9
		C370.8,134.2,370.5,134.3,370.1,134.3 M365.2,118.4c0.5,0,1,0.1,1.5,0.3c0.5,0.2,0.9,0.5,1.2,0.8c0.3,0.3,0.6,0.8,0.8,1.2
		c0.2,0.5,0.3,1,0.3,1.5l0,10.7c0,0.3,0.1,0.5,0.3,0.7c0.2,0.2,0.4,0.3,0.7,0.3c0.3,0,0.5-0.1,0.7-0.3c0.2-0.2,0.3-0.4,0.3-0.7
		l0-10.7c0-0.8-0.2-1.5-0.5-2.3c-0.3-0.7-0.7-1.3-1.2-1.8c-0.5-0.5-1.1-0.9-1.9-1.2c-0.7-0.3-1.5-0.4-2.3-0.4c-1,0-1.9,0.2-2.7,0.7
		c-0.8,0.4-1.5,1.1-2,1.8l-0.1,0.2l-0.1-0.2c-0.5-0.7-1.2-1.3-2-1.8c-0.8-0.4-1.7-0.6-2.7-0.6c-0.7,0-1.3,0.2-2,0.5
		c-0.7,0.3-1.2,0.7-1.6,1.1l-0.3,0.3l0-0.8c0-0.3-0.1-0.5-0.3-0.7c-0.2-0.2-0.4-0.3-0.7-0.3c-0.3,0-0.5,0.1-0.7,0.3
		c-0.2,0.2-0.3,0.4-0.3,0.7l0,15.5c0,0.3,0.1,0.5,0.3,0.7c0.2,0.2,0.4,0.3,0.7,0.3c0.3,0,0.5-0.1,0.7-0.3c0.2-0.2,0.3-0.4,0.3-0.7
		l-0.1-10.9c0.1-1.1,0.4-1.9,1.1-2.7c0.7-0.7,1.6-1.1,2.7-1.1c1,0,1.9,0.4,2.7,1.1c0.8,0.7,1.2,1.7,1.2,2.8l0,10.8
		c0,0.3,0.1,0.5,0.3,0.7c0.2,0.2,0.4,0.3,0.7,0.3c0.3,0,0.5-0.1,0.7-0.3c0.2-0.2,0.3-0.4,0.3-0.7l-0.1-10.7c0-0.5,0.1-1,0.3-1.5
		c0.2-0.5,0.5-0.9,0.8-1.2c0.3-0.4,0.7-0.6,1.2-0.8C364.2,118.5,364.7,118.4,365.2,118.4"/>
	<path fill="#32347B" d="M374.6,112.3c0-0.4,0.2-0.8,0.4-1.1c0.3-0.3,0.7-0.4,1.1-0.4c0.4,0,0.8,0.1,1.1,0.4
		c0.3,0.3,0.5,0.6,0.5,1.1c0,0.4-0.1,0.8-0.4,1.1c-0.3,0.3-0.6,0.4-1.1,0.4c-0.4,0-0.7-0.1-1-0.4
		C374.8,113.1,374.6,112.7,374.6,112.3 M375,117.5c0-0.3,0.1-0.6,0.4-0.8c0.2-0.2,0.5-0.4,0.8-0.3c0.3,0,0.6,0.1,0.8,0.3
		c0.2,0.2,0.3,0.5,0.3,0.8l0.1,15.5c0,0.3-0.1,0.6-0.3,0.8c-0.2,0.2-0.5,0.3-0.8,0.3c-0.3,0-0.6-0.1-0.8-0.3
		c-0.2-0.2-0.3-0.5-0.3-0.8L375,117.5z"/>
	<path fill="#32347B" d="M376.2,134.3c-0.3,0-0.7-0.1-0.9-0.4c-0.3-0.2-0.4-0.6-0.4-0.9l-0.1-15.5c0-0.3,0.1-0.6,0.4-0.9
		c0.2-0.2,0.5-0.4,0.9-0.4c0.4,0,0.7,0.1,0.9,0.4c0.2,0.3,0.4,0.5,0.4,0.9l0.1,15.5c0,0.3-0.1,0.7-0.4,0.9
		C376.9,134.1,376.5,134.3,376.2,134.3 M376.1,116.5c-0.2,0-0.5,0.1-0.7,0.3c-0.2,0.2-0.3,0.4-0.3,0.7l0.1,15.5
		c0,0.3,0.1,0.5,0.3,0.7c0.2,0.2,0.4,0.3,0.7,0.3c0.3,0,0.5-0.1,0.7-0.3c0.2-0.2,0.3-0.4,0.3-0.7l-0.1-15.5c0-0.3-0.1-0.5-0.3-0.7
		C376.6,116.6,376.4,116.5,376.1,116.5 M376.1,113.9c-0.4,0-0.8-0.2-1.1-0.5c-0.3-0.3-0.5-0.7-0.5-1.2c0-0.4,0.2-0.8,0.5-1.2
		c0.3-0.3,0.7-0.5,1.1-0.5c0.5,0,0.9,0.2,1.2,0.5c0.3,0.3,0.5,0.7,0.5,1.2c0,0.5-0.2,0.8-0.5,1.2C377,113.8,376.6,113.9,376.1,113.9
		 M376.1,111c-0.4,0-0.7,0.1-0.9,0.4c-0.3,0.3-0.4,0.6-0.4,1c0,0.4,0.1,0.7,0.4,1c0.2,0.3,0.6,0.4,0.9,0.4c0.4,0,0.7-0.1,1-0.4
		c0.3-0.3,0.4-0.6,0.4-1c0-0.4-0.1-0.7-0.4-0.9C376.8,111.1,376.5,110.9,376.1,111"/>
	<path fill="#32347B" d="M394.2,120.5c-0.6-0.5-1.3-0.9-2.1-1.3c-0.8-0.3-1.6-0.5-2.5-0.5c-0.9,0-1.8,0.2-2.6,0.5
		c-0.8,0.3-1.5,0.8-2.1,1.4c-0.6,0.6-1.1,1.3-1.4,2.1c-0.3,0.8-0.5,1.7-0.5,2.6c0,0.9,0.2,1.8,0.5,2.5c0.4,0.8,0.8,1.5,1.4,2.1
		c0.6,0.6,1.3,1.1,2.1,1.4c0.8,0.3,1.6,0.5,2.6,0.5c0.9,0,1.7-0.2,2.5-0.5c0.8-0.3,1.5-0.8,2.1-1.4c0.2-0.2,0.5-0.3,0.8-0.3
		c0.3,0,0.6,0.1,0.8,0.3c0.2,0.2,0.3,0.5,0.3,0.8c0,0.3-0.2,0.6-0.4,0.9c-0.2,0.2-0.5,0.5-0.9,0.8c-0.4,0.3-0.8,0.5-1.4,0.8
		c-0.5,0.3-1.1,0.5-1.8,0.6c-0.6,0.2-1.3,0.3-2.1,0.2c-1.2,0-2.3-0.2-3.4-0.6c-1.1-0.4-2-1.1-2.8-1.8s-1.5-1.7-1.9-2.8
		c-0.5-1.1-0.7-2.2-0.7-3.5c0-1.2,0.2-2.3,0.7-3.4c0.4-1.1,1.1-2,1.8-2.8c0.8-0.8,1.8-1.4,2.8-1.9c1.1-0.5,2.3-0.7,3.5-0.8
		c0.7,0,1.4,0.1,2,0.3c0.6,0.2,1.2,0.4,1.7,0.6c0.5,0.3,0.9,0.5,1.3,0.8c0.4,0.3,0.7,0.5,1,0.7c0.1,0.1,0.3,0.4,0.4,0.7
		c0.1,0.3,0,0.7-0.2,0.9c-0.2,0.2-0.5,0.4-0.8,0.3C394.7,120.8,394.4,120.7,394.2,120.5"/>
	<path fill="#32347B" d="M389.6,134.2c-1.2,0-2.4-0.2-3.5-0.6c-1.1-0.5-2-1.1-2.8-1.9c-0.8-0.8-1.5-1.7-1.9-2.8
		c-0.5-1.1-0.7-2.3-0.7-3.6c0-1.2,0.2-2.4,0.7-3.5c0.5-1.1,1.1-2,1.9-2.8c0.8-0.8,1.8-1.5,2.8-1.9c1.1-0.5,2.3-0.8,3.6-0.8l0,0
		c0.8,0,1.4,0.1,2.1,0.3c0.6,0.2,1.2,0.4,1.7,0.6c0.4,0.2,0.9,0.5,1.3,0.8c0.4,0.3,0.7,0.6,0.9,0.8c0.2,0.1,0.3,0.4,0.4,0.7
		c0.1,0.4,0,0.8-0.3,1.1c-0.2,0.3-0.5,0.4-0.9,0.4c-0.4,0-0.7-0.1-0.9-0.4c-0.6-0.5-1.3-0.9-2.1-1.2c-1.5-0.6-3.4-0.6-4.9,0
		c-0.8,0.3-1.5,0.8-2,1.4c-0.6,0.6-1,1.2-1.4,2c-0.3,0.8-0.5,1.6-0.5,2.5c0,0.9,0.2,1.7,0.5,2.5c0.4,0.8,0.8,1.4,1.4,2
		c0.6,0.6,1.3,1,2,1.3c0.8,0.3,1.6,0.5,2.5,0.5c0.9,0,1.7-0.2,2.5-0.5c0.7-0.3,1.4-0.7,2-1.3c0.2-0.3,0.6-0.4,0.9-0.4
		c0.4,0,0.7,0.1,0.9,0.4c0.2,0.2,0.4,0.5,0.3,0.9c0,0.4-0.2,0.7-0.5,1c-0.2,0.2-0.5,0.5-0.9,0.8c-0.4,0.3-0.9,0.6-1.4,0.8
		c-0.5,0.2-1.1,0.4-1.8,0.6C391.1,134.1,390.4,134.2,389.6,134.2 M389.6,116.6c-1.2,0.1-2.4,0.3-3.5,0.8c-1.1,0.5-2,1.1-2.7,1.9
		c-0.8,0.8-1.4,1.7-1.8,2.7c-0.4,1-0.6,2.2-0.6,3.3c0,1.3,0.2,2.4,0.7,3.4c0.5,1.1,1.1,2,1.9,2.7c0.8,0.8,1.7,1.3,2.8,1.8
		c1,0.4,2.2,0.6,3.4,0.6c0.8,0,1.5-0.1,2.1-0.2c0.7-0.2,1.2-0.4,1.7-0.6c0.5-0.2,0.9-0.5,1.3-0.8c0.4-0.3,0.7-0.5,0.9-0.7
		c0.2-0.2,0.4-0.5,0.4-0.8c0-0.2,0-0.5-0.2-0.7c-0.2-0.2-0.4-0.3-0.7-0.3c-0.3,0-0.5,0.1-0.7,0.3c-0.6,0.6-1.4,1.1-2.1,1.4
		c-0.8,0.3-1.6,0.5-2.6,0.5c-0.9,0-1.8-0.2-2.6-0.5c-0.8-0.4-1.5-0.8-2.1-1.4c-0.6-0.6-1.1-1.3-1.5-2.1c-0.3-0.8-0.5-1.6-0.5-2.6
		c0-0.9,0.2-1.8,0.5-2.6c0.4-0.9,0.9-1.6,1.5-2.2c0.6-0.6,1.3-1.1,2.1-1.4c0.8-0.4,1.7-0.6,2.6-0.5c0.9,0,1.8,0.2,2.5,0.5
		c0.8,0.3,1.5,0.8,2.2,1.3c0.2,0.2,0.4,0.3,0.7,0.3c0.3,0,0.5-0.1,0.7-0.3c0.2-0.2,0.3-0.5,0.2-0.8c-0.1-0.3-0.2-0.5-0.3-0.6
		c-0.2-0.2-0.5-0.4-1-0.8c-0.4-0.3-0.9-0.6-1.3-0.8c-0.5-0.3-1.1-0.5-1.7-0.6C391,116.7,390.3,116.6,389.6,116.6"/>
	<path fill="#32347B" d="M399.2,112.2c0-0.4,0.2-0.8,0.4-1.1c0.3-0.3,0.6-0.4,1.1-0.4c0.4,0,0.8,0.2,1.1,0.4c0.3,0.3,0.4,0.6,0.4,1
		c0,0.4-0.1,0.8-0.4,1.1c-0.3,0.3-0.6,0.4-1.1,0.4c-0.4,0-0.8-0.1-1.1-0.4C399.4,113,399.2,112.6,399.2,112.2 M399.6,117.4
		c0-0.3,0.1-0.6,0.3-0.8c0.2-0.2,0.5-0.3,0.8-0.3c0.3,0,0.6,0.1,0.8,0.3c0.2,0.2,0.3,0.5,0.3,0.8l0,15.5c0,0.3-0.1,0.6-0.3,0.8
		c-0.2,0.2-0.5,0.3-0.8,0.3c-0.3,0-0.6-0.1-0.8-0.3c-0.2-0.2-0.3-0.5-0.3-0.8L399.6,117.4z"/>
	<path fill="#32347B" d="M400.8,134.2c-0.4,0-0.7-0.1-0.9-0.4c-0.3-0.3-0.4-0.6-0.4-0.9l-0.1-15.5c0-0.4,0.1-0.7,0.4-0.9
		c0.2-0.2,0.5-0.4,0.9-0.4c0.3,0,0.6,0.1,0.9,0.4c0.3,0.3,0.4,0.6,0.4,0.9l0,15.5c0,0.3-0.1,0.6-0.4,0.9
		C401.4,134.1,401.1,134.2,400.8,134.2 M400.7,116.4c-0.3,0-0.5,0.1-0.7,0.3c-0.2,0.2-0.3,0.4-0.3,0.7l0.1,15.5
		c0,0.3,0.1,0.5,0.3,0.7c0.2,0.2,0.4,0.3,0.7,0.3c0.3,0,0.5-0.1,0.7-0.3c0.2-0.2,0.3-0.4,0.3-0.7l-0.1-15.5c0-0.3-0.1-0.5-0.3-0.7
		C401.2,116.5,401,116.4,400.7,116.4 M400.7,113.8c-0.5,0-0.9-0.1-1.2-0.5c-0.3-0.3-0.5-0.7-0.5-1.2c0-0.4,0.2-0.8,0.5-1.2
		c0.3-0.3,0.7-0.5,1.2-0.5c0.4,0,0.8,0.1,1.2,0.5c0.3,0.3,0.5,0.7,0.5,1.2c0,0.5-0.1,0.8-0.5,1.2
		C401.5,113.7,401.2,113.8,400.7,113.8 M400.7,110.8c-0.4,0-0.7,0.1-1,0.4c-0.3,0.3-0.4,0.6-0.4,1s0.1,0.7,0.4,1
		c0.3,0.3,0.6,0.4,1,0.4c0.4,0,0.7-0.1,0.9-0.4c0.3-0.3,0.4-0.6,0.4-1c0-0.4-0.1-0.7-0.4-0.9C401.4,111,401,110.9,400.7,110.8"/>
	<path fill="#32347B" d="M405.6,111.8c0-0.3,0.1-0.6,0.3-0.8c0.2-0.2,0.5-0.3,0.8-0.3c0.3,0,0.6,0.1,0.8,0.3
		c0.2,0.2,0.3,0.5,0.3,0.8l0.1,21.1c0,0.3-0.1,0.6-0.3,0.8c-0.2,0.2-0.5,0.3-0.8,0.3c-0.3,0-0.6-0.1-0.8-0.3
		c-0.2-0.2-0.3-0.5-0.3-0.8L405.6,111.8z"/>
	<path fill="#32347B" d="M406.8,134.1c-0.4,0-0.7-0.1-0.9-0.4c-0.2-0.3-0.4-0.6-0.4-0.9l-0.1-21.1c0-0.4,0.1-0.7,0.4-0.9
		c0.3-0.2,0.6-0.4,0.9-0.4c0.3,0,0.6,0.1,0.9,0.4c0.3,0.2,0.4,0.6,0.4,0.9l0.1,21.1c0,0.4-0.1,0.7-0.4,0.9
		C407.5,134,407.2,134.1,406.8,134.1 M406.7,110.8c-0.3,0-0.5,0.1-0.7,0.3c-0.2,0.2-0.3,0.4-0.3,0.7l0.1,21.1c0,0.3,0.1,0.5,0.3,0.7
		c0.2,0.2,0.4,0.3,0.7,0.3c0.3,0,0.5-0.1,0.7-0.3c0.2-0.2,0.3-0.4,0.3-0.7l-0.1-21.1c0-0.3-0.1-0.5-0.3-0.7
		C407.2,110.9,407,110.8,406.7,110.8"/>
	<path fill="#32347B" d="M411.3,112.1c0-0.4,0.2-0.7,0.4-1.1c0.3-0.3,0.6-0.4,1.1-0.4c0.4,0,0.8,0.1,1,0.4c0.3,0.3,0.5,0.7,0.5,1.1
		c0,0.4-0.1,0.8-0.4,1.1c-0.3,0.3-0.6,0.4-1.1,0.5c-0.4,0-0.8-0.1-1.1-0.4C411.5,112.9,411.3,112.6,411.3,112.1 M411.7,117.4
		c0-0.3,0.1-0.6,0.3-0.8c0.2-0.2,0.5-0.3,0.8-0.3c0.3,0,0.6,0.1,0.8,0.3c0.2,0.2,0.3,0.5,0.3,0.8l0.1,15.5c0,0.3-0.1,0.6-0.3,0.8
		c-0.2,0.2-0.5,0.3-0.8,0.3c-0.3,0-0.6-0.1-0.8-0.3c-0.2-0.2-0.3-0.5-0.3-0.8L411.7,117.4z"/>
	<path fill="#32347B" d="M412.9,134.1c-0.4,0-0.6-0.1-0.9-0.4c-0.2-0.3-0.4-0.6-0.4-0.9l-0.1-15.5c0-0.4,0.1-0.7,0.4-0.9
		c0.3-0.3,0.6-0.4,0.9-0.4c0.3,0,0.7,0.1,0.9,0.4c0.2,0.2,0.4,0.6,0.4,0.9l0.1,15.5c0,0.3-0.1,0.7-0.4,0.9
		C413.6,134,413.3,134.1,412.9,134.1 M412.9,116.4c-0.3,0-0.5,0.1-0.7,0.3c-0.2,0.2-0.3,0.4-0.2,0.7l0,15.5c0,0.3,0.1,0.5,0.3,0.7
		c0.2,0.2,0.4,0.3,0.7,0.3c0.3,0,0.5-0.1,0.7-0.3c0.2-0.2,0.3-0.4,0.3-0.7l-0.1-15.5c0-0.3-0.1-0.5-0.3-0.7
		C413.4,116.5,413.1,116.4,412.9,116.4 M412.9,113.8c-0.5,0-0.9-0.1-1.2-0.5c-0.3-0.3-0.5-0.7-0.5-1.2c0-0.4,0.2-0.8,0.5-1.2
		c0.4-0.3,0.7-0.5,1.2-0.5c0.5,0,0.8,0.1,1.2,0.5c0.3,0.3,0.5,0.7,0.5,1.2c0,0.5-0.2,0.8-0.5,1.2
		C413.7,113.6,413.3,113.8,412.9,113.8 M412.8,110.8c-0.3,0-0.7,0.1-1,0.4c-0.3,0.3-0.4,0.6-0.4,1c0,0.4,0.1,0.7,0.4,0.9
		c0.2,0.3,0.6,0.4,1,0.4c0.4,0,0.7-0.1,0.9-0.4c0.3-0.3,0.4-0.6,0.4-0.9c0-0.4-0.1-0.7-0.4-0.9C413.5,110.9,413.2,110.8,412.8,110.8
		"/>
	<path fill="#32347B" d="M426.3,116.3c1.2,0,2.3,0.2,3.4,0.7c1.1,0.5,2,1.1,2.8,1.9c0.8,0.8,1.5,1.8,2,2.8c0.4,1.1,0.7,2.2,0.7,3.5
		l0,7.7c0,0.3-0.1,0.6-0.3,0.8c-0.2,0.2-0.5,0.3-0.8,0.3c-0.3,0-0.6-0.1-0.8-0.3c-0.2-0.2-0.3-0.5-0.3-0.8l0-2.2
		c-0.8,0.9-1.7,1.7-2.9,2.4c-1.1,0.7-2.4,1-3.7,1c-1.2,0-2.4-0.2-3.4-0.6c-1.1-0.4-2-1-2.8-1.8c-0.8-0.8-1.4-1.7-1.9-2.8
		c-0.5-1.1-0.7-2.2-0.7-3.5c0-1.2,0.2-2.4,0.6-3.5c0.5-1.1,1.1-2,1.9-2.8c0.8-0.8,1.7-1.4,2.8-1.9
		C423.9,116.5,425.1,116.3,426.3,116.3 M419.8,125.1c0,0.9,0.2,1.8,0.5,2.5c0.3,0.8,0.8,1.5,1.4,2.1c0.6,0.6,1.3,1.1,2.1,1.4
		c0.8,0.3,1.7,0.5,2.6,0.5c0.9,0,1.7-0.2,2.5-0.5c0.8-0.3,1.5-0.8,2.1-1.4c0.6-0.6,1.1-1.3,1.4-2.1c0.3-0.8,0.6-1.6,0.6-2.6
		c0-0.9-0.2-1.8-0.5-2.6c-0.4-0.8-0.8-1.5-1.4-2.1c-0.6-0.6-1.3-1.1-2.1-1.4c-0.8-0.3-1.6-0.5-2.6-0.5c-0.9,0-1.7,0.2-2.5,0.5
		c-0.8,0.3-1.5,0.8-2.1,1.4c-0.6,0.6-1.1,1.3-1.4,2.1C420,123.4,419.8,124.3,419.8,125.1"/>
	<path fill="#32347B" d="M434.1,134.1c-0.4,0-0.7-0.1-0.9-0.4c-0.3-0.3-0.4-0.6-0.4-0.9l0-1.9c-0.7,0.8-1.6,1.5-2.7,2.1
		c-1.1,0.7-2.4,1-3.7,1c-1.2,0-2.4-0.2-3.5-0.6c-1.1-0.5-2-1.1-2.8-1.8c-0.8-0.8-1.5-1.7-2-2.8c-0.4-1.1-0.7-2.3-0.7-3.5
		c0-1.2,0.2-2.4,0.7-3.5c0.4-1.1,1.1-2.1,1.9-2.9c0.8-0.8,1.8-1.5,2.8-1.9c1.1-0.5,2.3-0.7,3.6-0.7c1.2,0,2.3,0.2,3.4,0.7
		c1.1,0.5,2,1.1,2.8,1.9c0.8,0.8,1.5,1.8,2,2.8c0.5,1.1,0.7,2.3,0.7,3.5l0,7.7c0,0.3-0.1,0.7-0.4,0.9
		C434.7,133.9,434.4,134.1,434.1,134.1 M433.1,130.1l0,2.7c0,0.3,0.1,0.5,0.3,0.7c0.2,0.2,0.4,0.3,0.7,0.3c0.3,0,0.5-0.1,0.7-0.3
		c0.2-0.2,0.3-0.4,0.3-0.7l0-7.7c0-1.2-0.2-2.3-0.7-3.4c-0.5-1-1.1-2-1.9-2.8c-0.8-0.8-1.7-1.4-2.7-1.9c-1-0.5-2.1-0.7-3.3-0.7
		c-1.3,0-2.4,0.2-3.5,0.7c-1.1,0.4-2,1.1-2.7,1.9c-0.8,0.8-1.4,1.7-1.8,2.8c-0.4,1.1-0.7,2.2-0.6,3.4c0,1.2,0.2,2.4,0.7,3.4
		c0.5,1.1,1.1,2,1.9,2.7c0.8,0.8,1.7,1.4,2.7,1.8c1.1,0.4,2.2,0.6,3.4,0.6c1.3,0,2.5-0.3,3.6-1c1.1-0.6,2.1-1.4,2.9-2.3L433.1,130.1
		z M426.4,131.8c-0.9,0-1.8-0.2-2.6-0.5c-0.8-0.4-1.5-0.8-2.1-1.4c-0.6-0.6-1.1-1.3-1.5-2.1c-0.4-0.8-0.5-1.7-0.5-2.6
		c0-0.9,0.2-1.8,0.5-2.6c0.4-0.8,0.8-1.6,1.4-2.1c0.6-0.6,1.3-1.1,2.1-1.5c0.8-0.3,1.7-0.5,2.6-0.5c1,0,1.8,0.2,2.6,0.5
		c0.8,0.3,1.5,0.8,2.2,1.4c0.6,0.6,1.1,1.3,1.4,2.1c0.4,0.8,0.5,1.7,0.5,2.6c0,0.9-0.2,1.8-0.6,2.7c-0.4,0.8-0.8,1.5-1.5,2.1
		c-0.6,0.6-1.3,1.1-2.1,1.4C428.1,131.6,427.2,131.8,426.4,131.8 M426.3,118.7c-0.9,0-1.7,0.2-2.5,0.5c-0.8,0.3-1.4,0.8-2,1.4
		c-0.6,0.6-1,1.3-1.3,2.1c-0.3,0.8-0.5,1.6-0.5,2.5c0,0.9,0.2,1.7,0.5,2.5c0.3,0.8,0.8,1.5,1.4,2c0.6,0.6,1.2,1,2.1,1.4
		c1.5,0.6,3.3,0.7,4.9,0c0.7-0.3,1.4-0.8,2-1.4c0.6-0.6,1-1.3,1.4-2c0.3-0.8,0.5-1.7,0.6-2.6c0-0.8-0.2-1.7-0.5-2.5
		c-0.3-0.8-0.8-1.5-1.4-2.1c-0.6-0.6-1.3-1-2.1-1.3C428,118.9,427.2,118.7,426.3,118.7"/>
	<path fill="#32347B" d="M438.3,117.3c0-0.3,0.1-0.6,0.3-0.8c0.2-0.2,0.5-0.3,0.8-0.3c0.3,0,0.6,0.1,0.8,0.3
		c0.2,0.2,0.3,0.5,0.3,0.8l0,1.8c0.8-0.9,1.7-1.6,2.8-2.1c1.1-0.5,2.3-0.8,3.6-0.9c0.4,0,0.7,0.1,0.9,0.3c0.2,0.2,0.4,0.5,0.4,0.8
		c0,0.3-0.1,0.6-0.4,0.8c-0.2,0.2-0.5,0.3-0.9,0.3c-0.9,0-1.7,0.2-2.4,0.6c-0.8,0.3-1.4,0.8-2,1.3c-0.6,0.6-1,1.3-1.4,2
		c-0.3,0.8-0.5,1.5-0.6,2.4l0,8.1c0,0.3-0.1,0.6-0.3,0.8c-0.2,0.2-0.5,0.3-0.8,0.3c-0.3,0-0.6-0.1-0.8-0.3c-0.2-0.2-0.3-0.5-0.3-0.8
		L438.3,117.3z"/>
	<path fill="#32347B" d="M439.5,134c-0.4,0-0.7-0.1-0.9-0.4c-0.3-0.3-0.4-0.6-0.4-0.9l0-15.5c0-0.3,0.1-0.7,0.4-0.9
		c0.2-0.2,0.6-0.4,0.9-0.4c0.3,0,0.6,0.1,0.9,0.4c0.3,0.3,0.4,0.5,0.4,0.9l0,1.4c0.7-0.8,1.6-1.4,2.6-1.9c1.1-0.6,2.3-0.8,3.6-0.9
		c0.4,0,0.8,0.1,1,0.4c0.3,0.3,0.4,0.6,0.4,0.9c0,0.3-0.1,0.6-0.4,0.9c-0.3,0.3-0.6,0.4-1,0.4c-0.8,0-1.6,0.2-2.4,0.6
		c-0.7,0.3-1.4,0.8-1.9,1.3c-0.6,0.6-1,1.2-1.3,1.9c-0.3,0.7-0.5,1.5-0.6,2.3l0,8.1c0,0.3-0.1,0.6-0.4,0.9
		C440.1,133.9,439.8,134,439.5,134 M439.4,116.3c-0.3,0-0.5,0.1-0.7,0.3c-0.2,0.2-0.3,0.4-0.2,0.7l0.1,15.5c0,0.3,0.1,0.5,0.3,0.7
		c0.2,0.2,0.4,0.3,0.7,0.3c0.3,0,0.5-0.1,0.7-0.3c0.2-0.2,0.3-0.4,0.3-0.7l0-8.1c0-0.9,0.2-1.7,0.6-2.5c0.4-0.8,0.8-1.4,1.4-2
		c0.6-0.6,1.3-1,2.1-1.4c0.7-0.3,1.6-0.5,2.5-0.6c0.3,0,0.6-0.1,0.8-0.3c0.2-0.2,0.3-0.4,0.3-0.7c0-0.3-0.1-0.5-0.3-0.7
		c-0.2-0.2-0.5-0.3-0.8-0.3c-1.3,0-2.5,0.3-3.5,0.8c-1.1,0.5-2,1.2-2.8,2.1l-0.3,0.3l0-2.2c0-0.3-0.1-0.5-0.3-0.7
		C439.9,116.4,439.7,116.3,439.4,116.3"/>
	<path fill="#32347B" d="M451.1,112c0-0.4,0.2-0.8,0.5-1.1c0.3-0.3,0.6-0.4,1.1-0.4c0.4,0,0.8,0.1,1,0.4c0.3,0.3,0.5,0.6,0.5,1.1
		c0,0.4-0.1,0.8-0.4,1.1c-0.3,0.3-0.6,0.4-1,0.4c-0.4,0-0.8-0.1-1.1-0.4C451.2,112.7,451.1,112.4,451.1,112 M451.5,117.2
		c0-0.3,0.1-0.6,0.3-0.8c0.2-0.2,0.5-0.3,0.8-0.3c0.3,0,0.6,0.1,0.8,0.3c0.2,0.2,0.3,0.5,0.3,0.8l0.1,15.5c0,0.3-0.1,0.6-0.3,0.8
		c-0.2,0.2-0.5,0.3-0.8,0.3c-0.3,0-0.6-0.1-0.8-0.3c-0.2-0.2-0.3-0.5-0.3-0.8L451.5,117.2z"/>
	<path fill="#32347B" d="M452.7,133.9c-0.3,0-0.7-0.1-0.9-0.4c-0.3-0.2-0.4-0.6-0.4-0.9l0-15.5c0-0.4,0.1-0.7,0.4-0.9
		c0.2-0.2,0.5-0.4,0.9-0.4c0.4,0,0.7,0.1,0.9,0.4c0.3,0.3,0.4,0.6,0.4,0.9l0.1,15.5c0,0.3-0.1,0.6-0.4,0.9
		C453.3,133.8,453,133.9,452.7,133.9 M452.6,116.2c-0.3,0-0.5,0.1-0.7,0.3c-0.2,0.2-0.3,0.4-0.3,0.7l0.1,15.5c0,0.3,0.1,0.5,0.3,0.7
		c0.2,0.2,0.4,0.3,0.7,0.3c0.3,0,0.5-0.1,0.7-0.3c0.2-0.2,0.3-0.4,0.3-0.7l-0.1-15.5c0-0.3-0.1-0.5-0.3-0.7
		C453.1,116.3,452.9,116.2,452.6,116.2 M452.6,113.6c-0.5,0-0.9-0.2-1.2-0.5c-0.3-0.3-0.5-0.7-0.5-1.2c0-0.4,0.2-0.8,0.5-1.2
		c0.3-0.3,0.7-0.5,1.2-0.5c0.4,0,0.8,0.1,1.2,0.5c0.3,0.3,0.5,0.7,0.5,1.2c0,0.5-0.1,0.8-0.5,1.2C453.5,113.5,453,113.6,452.6,113.6
		 M452.6,110.6c-0.4,0-0.7,0.1-1,0.4c-0.2,0.3-0.4,0.6-0.4,1c0,0.4,0.1,0.7,0.4,1c0.3,0.3,0.6,0.4,1,0.4c0.4,0,0.7-0.1,0.9-0.4
		c0.2-0.3,0.4-0.6,0.4-1c0-0.4-0.1-0.7-0.4-0.9C453.3,110.8,453,110.6,452.6,110.6"/>
	<path fill="#32347B" d="M466.1,116.1c1.2,0,2.3,0.2,3.3,0.7c1.1,0.5,2,1.1,2.8,1.9c0.8,0.8,1.5,1.8,1.9,2.8
		c0.5,1.1,0.7,2.2,0.7,3.4l0,7.7c0,0.3-0.1,0.6-0.3,0.8c-0.2,0.2-0.5,0.3-0.8,0.3c-0.3,0-0.6-0.1-0.8-0.3c-0.2-0.2-0.3-0.5-0.3-0.8
		l0-2.2c-0.8,0.9-1.8,1.7-2.9,2.3c-1.1,0.6-2.4,1-3.7,1c-1.2,0-2.3-0.2-3.4-0.6c-1.1-0.4-2-1-2.8-1.8c-0.8-0.8-1.4-1.7-1.9-2.8
		c-0.5-1.1-0.7-2.2-0.7-3.5c0-1.2,0.2-2.4,0.7-3.5c0.4-1.1,1.1-2,1.9-2.8c0.8-0.8,1.7-1.4,2.8-1.9
		C463.7,116.3,464.8,116.1,466.1,116.1 M459.5,125c0,0.9,0.2,1.8,0.5,2.5c0.3,0.8,0.8,1.5,1.4,2.1c0.6,0.6,1.3,1.1,2.1,1.4
		c0.8,0.3,1.6,0.5,2.5,0.5c0.9,0,1.7-0.2,2.5-0.5c0.8-0.3,1.4-0.8,2-1.4c0.6-0.6,1.1-1.3,1.4-2.1c0.3-0.8,0.5-1.6,0.6-2.6
		c0-0.9-0.2-1.8-0.5-2.6c-0.3-0.8-0.8-1.5-1.4-2.1c-0.6-0.6-1.3-1.1-2.1-1.4c-0.8-0.3-1.7-0.5-2.6-0.5c-0.9,0-1.7,0.2-2.5,0.5
		c-0.8,0.3-1.5,0.8-2.1,1.4c-0.6,0.6-1.1,1.3-1.4,2.1C459.7,123.2,459.5,124.1,459.5,125"/>
	<path fill="#32347B" d="M473.8,133.9c-0.4,0-0.6-0.1-0.9-0.4c-0.3-0.3-0.4-0.6-0.4-0.9l0-1.8c-0.8,0.8-1.7,1.5-2.7,2.1
		c-1.1,0.6-2.4,1-3.8,1c-1.2,0-2.4-0.2-3.5-0.6c-1.1-0.5-2-1.1-2.9-1.9c-0.8-0.8-1.5-1.7-1.9-2.8c-0.5-1.1-0.7-2.3-0.7-3.5
		c0-1.2,0.2-2.4,0.7-3.5c0.5-1.1,1.1-2.1,1.9-2.9c0.8-0.8,1.8-1.5,2.9-1.9c1.1-0.5,2.2-0.7,3.6-0.7c1.2,0,2.3,0.2,3.4,0.7
		c1.1,0.5,2,1.1,2.8,1.9c0.8,0.8,1.5,1.8,2,2.8c0.5,1.1,0.7,2.3,0.7,3.5l0,7.7c0,0.4-0.1,0.7-0.4,0.9
		C474.5,133.8,474.2,133.9,473.8,133.9 M472.8,130l0,2.7c0,0.3,0.1,0.5,0.3,0.7c0.2,0.2,0.4,0.3,0.7,0.3c0.3,0,0.5-0.1,0.7-0.3
		c0.2-0.2,0.3-0.4,0.3-0.7l0-7.7c0-1.2-0.2-2.3-0.7-3.4c-0.5-1-1.1-2-1.9-2.8c-0.8-0.8-1.7-1.4-2.8-1.9c-1-0.4-2.1-0.7-3.3-0.7
		c-1.3,0-2.4,0.2-3.5,0.7c-1,0.4-2,1.1-2.8,1.9c-0.8,0.8-1.4,1.7-1.8,2.8c-0.4,1.1-0.6,2.2-0.6,3.4c0,1.2,0.2,2.4,0.7,3.4
		c0.5,1,1.1,2,1.9,2.7c0.8,0.8,1.7,1.4,2.8,1.8c1,0.4,2.2,0.6,3.3,0.6c1.3,0,2.5-0.3,3.6-1c1.1-0.6,2.1-1.4,2.9-2.3L472.8,130z
		 M466.1,131.6c-0.9,0-1.8-0.2-2.6-0.5c-0.8-0.3-1.5-0.8-2.1-1.4c-0.6-0.6-1.1-1.3-1.5-2.1c-0.4-0.8-0.5-1.7-0.5-2.6
		c0-0.9,0.2-1.8,0.5-2.6c0.3-0.8,0.8-1.5,1.4-2.1c0.6-0.6,1.3-1.1,2.1-1.4c0.8-0.4,1.6-0.5,2.6-0.5c0.9,0,1.8,0.2,2.6,0.5
		c0.8,0.3,1.5,0.8,2.1,1.4c0.6,0.6,1.1,1.3,1.4,2.1c0.3,0.8,0.5,1.7,0.5,2.6c-0.1,1-0.3,1.9-0.6,2.7c-0.4,0.8-0.8,1.5-1.5,2.1
		c-0.6,0.6-1.3,1.1-2.1,1.4C467.8,131.5,467,131.6,466.1,131.6 M466,118.5c-0.9,0-1.7,0.2-2.5,0.5c-0.7,0.3-1.5,0.8-2,1.4
		c-0.6,0.6-1,1.3-1.4,2.1c-0.3,0.8-0.5,1.6-0.5,2.5c0,0.9,0.2,1.7,0.5,2.5c0.3,0.8,0.8,1.4,1.4,2c0.6,0.6,1.3,1,2,1.4
		c0.8,0.3,1.6,0.5,2.5,0.5c0.9,0,1.6-0.2,2.4-0.5c0.7-0.3,1.4-0.8,2-1.3c0.6-0.6,1-1.2,1.4-2c0.3-0.8,0.5-1.6,0.6-2.6
		c0-0.9-0.2-1.7-0.5-2.5c-0.3-0.8-0.8-1.5-1.4-2.1c-0.6-0.6-1.3-1-2-1.3C467.8,118.7,466.9,118.5,466,118.5"/>
</g>
</svg>
